<svg width="475" height="59" viewBox="0 0 475 59" fill="none" xmlns="http://www.w3.org/2000/svg">
<path d="M0.476 58L24.004 0.879998H36.652L60.248 58H49.98L45.9 47.936H14.688L10.676 58H0.476ZM18.156 39.368H42.432L30.26 9.176L29.648 10.808L18.156 39.368ZM67.4273 58V0.879998H101.291C111.967 0.879998 118.495 5.572 118.495 15.432C118.495 22.096 116.047 26.312 111.763 28.08C116.795 29.78 120.603 34.88 120.603 41.68C120.603 52.628 113.939 58 102.243 58H67.4273ZM77.0153 49.364H101.495C107.479 49.364 110.743 46.916 110.743 41C110.743 35.152 107.275 32.908 101.427 32.908H77.0153V49.364ZM77.0153 24.272H100.203C104.827 24.272 108.635 22.776 108.635 16.588C108.635 10.876 105.303 9.516 100.339 9.516H77.0153V24.272ZM158.437 58.68C139.329 58.68 128.585 45.284 128.585 29.372C128.585 13.596 139.329 0.199998 158.437 0.199998C177.545 0.199998 188.289 13.596 188.289 29.372C188.289 45.284 177.545 58.68 158.437 58.68ZM138.445 29.372C138.445 40.32 144.497 49.976 158.437 49.976C172.377 49.976 178.429 40.32 178.429 29.372C178.429 18.628 172.377 8.904 158.437 8.904C144.497 8.904 138.445 18.628 138.445 29.372ZM224.617 58.68C205.849 58.68 198.301 51.676 198.301 34.744V0.879998H207.821V34.744C207.821 46.372 213.261 50.044 224.617 50.044C235.973 50.044 241.413 46.372 241.413 34.744V0.879998H250.933V34.744C250.933 51.88 243.249 58.68 224.617 58.68ZM280.313 58V9.516H258.485V0.879998H311.797V9.516H289.901V58H280.313ZM385.453 58.68C366.685 58.68 359.137 51.676 359.137 34.744V0.879998H368.657V34.744C368.657 46.372 374.097 50.044 385.453 50.044C396.809 50.044 402.249 46.372 402.249 34.744V0.879998H411.769V34.744C411.769 51.88 404.085 58.68 385.453 58.68ZM449.105 58.68C429.929 58.68 421.293 51.472 421.293 38.144V37.464H431.153V38.144C431.153 46.644 436.525 50.316 449.377 50.316C459.917 50.316 464.677 47.732 464.677 41.952C464.609 36.376 461.073 34.812 451.825 33.316L439.245 31.208C429.929 29.712 423.333 25.36 423.333 16.248C423.333 5.64 431.833 0.199998 447.541 0.199998C464.269 0.199998 472.769 6.592 472.769 18.084V18.764H462.977V18.084C462.977 11.624 458.625 8.564 447.677 8.564C437.953 8.564 433.193 11.012 433.193 15.908C433.193 20.464 437.749 22.572 444.889 23.66L457.673 25.7C468.213 27.264 474.469 31.276 474.469 41.272C474.469 53.58 466.921 58.68 449.105 58.68Z" fill="#013FFF"/>
</svg>
