<svg width="44" height="44" viewBox="0 0 44 44" fill="none" xmlns="http://www.w3.org/2000/svg">
<rect width="44" height="44" fill="#14171F"/>
<path d="M23.3881 31.5C23.3881 31.7761 23.1642 32 22.8881 32H19.7805C19.5043 32 19.2805 31.7761 19.2805 31.5V16.8683C19.2805 15.815 19.5071 14.9287 19.9603 14.2094C20.423 13.4815 21.0699 12.9334 21.9008 12.5652C22.7413 12.1884 23.7375 12 24.8895 12C25.2672 12 25.6308 12.0257 25.9802 12.0771C26.1881 12.1026 26.3927 12.1326 26.5939 12.1672C26.8303 12.2078 26.9974 12.4175 26.9937 12.6574L26.9663 14.4574C26.9618 14.7519 26.6845 14.9669 26.3909 14.9416C26.1926 14.9244 25.9613 14.9159 25.6969 14.9159C25.2059 14.9159 24.7856 14.9929 24.4363 15.1471C24.0963 15.2927 23.8366 15.511 23.6572 15.8022C23.4778 16.0933 23.3881 16.4487 23.3881 16.8683V31.5ZM25.9476 18.1015C26.2237 18.1015 26.4476 18.3253 26.4476 18.6015V20.2219C26.4476 20.498 26.2237 20.7219 25.9476 20.7219H17.5C17.2239 20.7219 17 20.498 17 20.2219V18.6015C17 18.3253 17.2239 18.1015 17.5 18.1015H25.9476Z" fill="white"/>
</svg>
