<svg width="25" height="25" viewBox="0 0 25 25" fill="none" xmlns="http://www.w3.org/2000/svg">
<path d="M7.41754 4.0957C6.67186 4.22554 5.77038 4.61507 5.18793 5.05654C4.20112 5.80222 3.46657 6.95968 3.16237 8.23215C2.99913 8.9296 2.95091 9.9869 3.05478 10.6621C3.3256 12.428 4.37919 14.1048 6.43072 16.0339C7.19124 16.7499 7.72174 17.2174 9.88086 19.076C11.209 20.2223 11.8767 20.7714 12.0177 20.8381C12.3071 20.9791 12.6929 20.9791 12.9823 20.8419C13.2605 20.7046 17.2152 17.3064 18.5544 16.0488C20.606 14.1234 21.6744 12.428 21.9452 10.6621C22.0491 9.9869 22.0009 8.9296 21.8376 8.23215C21.5334 6.95968 20.7989 5.80222 19.8121 5.05654C19.2148 4.60394 18.3207 4.22183 17.5454 4.0957C17.1262 4.02521 16.2692 4.02521 15.8537 4.0957C14.7036 4.29603 13.6241 4.93412 12.8116 5.90238C12.6521 6.09159 12.5148 6.2474 12.5 6.2474C12.4852 6.2474 12.3479 6.09159 12.1884 5.90238C11.3759 4.93412 10.2964 4.29603 9.14632 4.0957C8.74566 4.02892 7.8182 4.02892 7.41754 4.0957ZM9.27245 5.29768C9.6323 5.40156 10.2333 5.69834 10.5152 5.9098C10.864 6.1732 11.3314 6.65919 11.5837 7.01904C11.7098 7.20082 11.8582 7.41599 11.9138 7.4939C12.1921 7.88714 12.8079 7.88714 13.0862 7.4939C13.1418 7.41599 13.2902 7.20082 13.4163 7.01904C13.6686 6.65919 14.136 6.1732 14.4848 5.9098C14.7741 5.69463 15.3714 5.40156 15.7461 5.29397C16.0058 5.21978 16.1245 5.20865 16.7107 5.20865C17.4415 5.21236 17.6863 5.25687 18.2502 5.48317C19.5004 5.99142 20.4353 7.18227 20.7581 8.67733C20.8545 9.12622 20.8582 10.3059 20.7618 10.7548C20.4094 12.3946 19.3001 13.8674 16.6661 16.2009C15.2972 17.414 12.5185 19.7697 12.4777 19.7549C12.4221 19.7326 9.20567 16.9762 8.32645 16.1934C5.68505 13.8488 4.59436 12.3946 4.23822 10.7548C4.14176 10.3059 4.14547 9.12622 4.24193 8.67733C4.61662 6.95226 5.75925 5.69092 7.30253 5.3051C7.71432 5.19752 7.75142 5.19752 8.40064 5.20865C8.8755 5.21607 9.04986 5.23461 9.27245 5.29768Z" fill="#443E3E"/>
</svg>
