<svg width="25" height="25" viewBox="0 0 25 25" fill="none" xmlns="http://www.w3.org/2000/svg">
<path d="M12.2461 5.42969C12.2022 5.46387 11.499 6.58691 10.6885 7.92969C9.58009 9.75586 9.17482 10.3857 9.06251 10.4541C8.96486 10.5127 8.81837 10.5469 8.65724 10.5469C8.28615 10.5469 8.15919 10.4102 7.51954 9.31641C6.8506 8.17383 6.77736 8.07617 6.61134 8.04199C6.31837 7.98828 6.23536 8.07129 5.73243 8.90137C4.96583 10.166 4.84376 10.3467 4.67286 10.4492C4.50685 10.5518 4.22853 10.5762 4.04298 10.5029C3.9795 10.4785 3.51564 10.0586 3.01271 9.57031C2.10939 8.69629 2.08986 8.68164 1.91896 8.70605C1.71876 8.74023 1.58204 8.84766 1.54298 9.00879C1.52345 9.08691 1.90431 10.2734 2.73927 12.7051C3.47657 14.873 3.9795 16.4209 4.01368 16.6357C4.06739 16.9824 4.04298 17.3145 3.91114 17.9199C3.75001 18.6621 3.96974 19.209 4.56544 19.5215L4.80958 19.6533H12.5293H20.2442L20.5322 19.5068C20.8643 19.3359 21.1084 19.0479 21.1963 18.7354C21.2647 18.4814 21.2256 18.0176 21.1133 17.7246C21.0449 17.5586 21.0254 17.3584 21.0254 16.8945V16.2842L22.2363 12.7686C22.9004 10.835 23.4473 9.17969 23.4473 9.08691C23.4473 8.88184 23.3203 8.74512 23.0859 8.70605C22.9102 8.68164 22.8955 8.69141 22.0361 9.52148C21.5576 9.99023 21.1035 10.4102 21.0205 10.459C20.8301 10.5762 20.5225 10.5713 20.3272 10.4492C20.1563 10.3467 20.0342 10.166 19.2676 8.90137C18.8916 8.28125 18.7598 8.10059 18.6524 8.06152C18.5059 8.0127 18.3301 8.03711 18.2276 8.11523C18.1934 8.13965 17.8906 8.62793 17.5537 9.19922C17.2168 9.77051 16.875 10.2979 16.8018 10.3711C16.543 10.6201 16.1133 10.625 15.8496 10.3857C15.7813 10.3271 15.0781 9.19922 14.2822 7.88574C13.4863 6.56738 12.8027 5.46387 12.7588 5.42969C12.7149 5.40039 12.5977 5.37109 12.5 5.37109C12.4024 5.37109 12.2901 5.40039 12.2461 5.42969ZM13.7891 8.69629C14.4873 9.84863 15.1318 10.8691 15.2246 10.9619C15.5274 11.2646 15.7764 11.3525 16.333 11.3525C16.7676 11.3525 16.8506 11.3379 17.0654 11.2207C17.4121 11.04 17.5147 10.9131 18.0371 10.0391L18.4961 9.26758L18.6133 9.45312C18.6817 9.56055 18.8867 9.89746 19.0723 10.2051C19.6484 11.1621 19.9219 11.3525 20.7031 11.3525C21.2402 11.3525 21.4356 11.2744 21.8359 10.8984L22.0703 10.6787L21.6504 11.8945C20.9277 13.9844 20.5078 15.2393 20.3369 15.8203L20.1758 16.3818L12.5049 16.3965L4.834 16.4062L4.8047 16.2744C4.77052 16.1035 4.13087 14.1748 3.45216 12.1924L2.93458 10.6836L3.16896 10.9033C3.56447 11.2744 3.75978 11.3525 4.29689 11.3525C5.07814 11.3525 5.35157 11.1621 5.92775 10.2051C6.11329 9.89746 6.31837 9.56055 6.38673 9.45312L6.50392 9.26758L6.9629 10.0391C7.48536 10.9131 7.5879 11.04 7.93458 11.2207C8.14943 11.3379 8.23243 11.3525 8.667 11.3525C9.22365 11.3525 9.47267 11.2646 9.7754 10.9619C9.86818 10.8691 10.5127 9.84863 11.2109 8.69141C11.9043 7.53906 12.4854 6.59668 12.5 6.59668C12.5147 6.59668 13.0957 7.53906 13.7891 8.69629ZM20.1904 17.417C20.21 17.5195 20.2637 17.7637 20.3174 17.959C20.4395 18.4229 20.4346 18.4766 20.2686 18.6621L20.127 18.8232H12.5488H4.97072L4.82911 18.6621C4.64357 18.457 4.64845 18.3496 4.86329 17.3438L4.88282 17.2363H12.5244H20.1611L20.1904 17.417Z" fill="#443E3E"/>
<path d="M12.3682 10.2538C12.2363 10.3076 12.1485 10.4394 11.8067 11.1083C11.6699 11.3769 11.5528 11.6015 11.5479 11.6113C11.5381 11.621 11.2207 11.6699 10.8447 11.7236C10.1172 11.8212 9.99514 11.8554 9.91213 12.0117C9.79006 12.2412 9.84377 12.3486 10.3955 12.9101L10.9278 13.4521L10.8155 14.038C10.6641 14.8046 10.6592 14.9902 10.8057 15.1269C10.9863 15.2978 11.1768 15.2636 11.8555 14.9218L12.4756 14.6093L13.086 14.9462C13.7207 15.2929 13.8672 15.3369 14.0528 15.205C14.2627 15.0585 14.2676 14.9853 14.1504 14.2285L14.043 13.5156L14.5655 13.0078C14.8487 12.7294 15.0977 12.4462 15.1172 12.3779C15.1612 12.2021 15.0537 11.9824 14.9024 11.9189C14.7949 11.8749 13.6475 11.6699 13.5156 11.6699C13.4961 11.6699 13.3399 11.3769 13.169 11.0204C12.9981 10.6689 12.8272 10.3515 12.7881 10.3173C12.6856 10.2343 12.4903 10.205 12.3682 10.2538ZM12.9541 12.373C13.0127 12.412 13.1592 12.456 13.2813 12.4755C13.4033 12.4902 13.5645 12.5195 13.6377 12.5292L13.7744 12.5585L13.4815 12.8662C13.1543 13.2079 13.1348 13.2665 13.2324 13.7695C13.2617 13.9111 13.2715 14.038 13.2617 14.0478C13.252 14.0576 13.0957 13.9892 12.9151 13.8964C12.7344 13.7988 12.5342 13.7206 12.4707 13.7206C12.4024 13.7206 12.1973 13.7988 12.002 13.8964L11.6553 14.0722L11.6895 13.9306C11.7041 13.8574 11.7334 13.6425 11.7481 13.4619L11.7822 13.1298L11.4746 12.8173L11.1719 12.5097L11.4795 12.4755C12.0362 12.4169 12.0899 12.3876 12.3145 11.9726L12.5196 11.6015L12.6807 11.9531C12.7686 12.1435 12.8906 12.3339 12.9541 12.373Z" fill="#443E3E"/>
</svg>
