<svg width="25" height="25" viewBox="0 0 25 25" fill="none" xmlns="http://www.w3.org/2000/svg">
<path d="M14.1828 3.09649C13.6299 3.46758 12.7244 4.37305 12.1752 5.09668C11.2957 6.26562 10.6574 7.64238 10.4088 8.91895C10.2307 9.83184 10.1268 10.9377 10.1231 11.9322C10.1231 12.3293 10.1119 12.4258 10.0711 12.4258C10.0451 12.4258 9.88927 12.359 9.72599 12.2773C9.03575 11.9322 8.48283 11.0861 8.23048 9.97656C8.12658 9.51641 8.10431 9.47188 7.96329 9.38281C7.7963 9.28262 7.68868 9.29004 7.46974 9.41621C6.91681 9.73164 6.33048 10.4924 5.97052 11.3533C5.34337 12.8525 5.1838 15.0939 5.592 16.6748C6.03732 18.4078 7.19142 19.9813 8.70919 20.9238C9.88556 21.6512 11.1027 22 12.4981 22C14.4426 22 16.1756 21.2838 17.5412 19.9182C18.6582 18.8012 19.3262 17.4615 19.5711 15.8473C19.6453 15.3352 19.6268 14.1328 19.5303 13.4834C19.3596 12.3293 19.007 11.2791 18.443 10.2549C18.0904 9.61289 17.7676 9.12305 16.8881 7.91328C15.9567 6.63301 15.7526 6.31387 15.4668 5.72754C15.1217 5.01875 14.9102 4.24688 14.9102 3.69024C14.9065 3.20039 14.784 3 14.4871 3C14.3758 3 14.283 3.02969 14.1828 3.09649ZM14.168 4.4918C14.2645 5.06699 14.502 5.7127 14.8471 6.3584C15.1402 6.90762 15.4186 7.32324 16.1979 8.39199C17.2592 9.84668 17.5783 10.3514 17.9977 11.2346C18.7213 12.7635 18.9811 14.6635 18.6731 16.1738C18.3576 17.7064 17.3817 19.1648 16.0717 20.0592C15.7563 20.2781 15.0957 20.6529 15.0957 20.6158C15.0957 20.6047 15.1625 20.4822 15.2442 20.3449C15.5781 19.7771 15.7303 19.0238 15.6561 18.3039C15.5522 17.2797 15.3406 16.7564 14.5502 15.5801C14.2979 15.2016 14.0307 14.7748 13.9602 14.6264C13.8229 14.3406 13.7227 13.9547 13.7227 13.6912C13.7227 13.5576 13.7004 13.5094 13.5965 13.4055C13.359 13.168 13.1215 13.2459 12.6428 13.7209C12.2049 14.1588 11.7744 14.8453 11.5592 15.4502C11.4367 15.7916 11.3551 16.2109 11.3143 16.7045C11.2957 16.9271 11.2697 17.1164 11.2586 17.1275C11.2252 17.1609 11.0545 16.7787 10.9914 16.5227C10.8727 16.0514 10.6129 15.9104 10.2678 16.133C9.87443 16.3779 9.53302 16.9939 9.40314 17.6879C9.21759 18.6824 9.34376 19.6473 9.75197 20.3449C9.83361 20.4859 9.89669 20.6047 9.88927 20.6121C9.86329 20.6381 9.10626 20.1928 8.7797 19.959C7.75919 19.2354 6.88341 18.0256 6.49376 16.8047C6.26368 16.0773 6.20802 15.6877 6.21173 14.7637C6.21544 13.3609 6.40099 12.3961 6.85743 11.4424C7.03556 11.0713 7.43634 10.4812 7.48829 10.5146C7.50314 10.5258 7.52911 10.5777 7.54396 10.6334C7.62931 10.9971 7.99669 11.7467 8.24533 12.0732C8.80939 12.8191 9.40314 13.1865 10.2158 13.2867C10.5127 13.3201 10.5684 13.3201 10.6871 13.2645C10.9061 13.1605 10.9395 13.0418 10.9395 12.3813C10.9432 10.8227 11.0953 9.43477 11.3736 8.47363C11.7596 7.12656 12.6354 5.68672 13.7227 4.60312C13.9342 4.39531 14.1123 4.22461 14.116 4.22461C14.1197 4.22461 14.1457 4.34707 14.168 4.4918ZM13.0547 14.6189C13.0547 14.7488 13.4369 15.4316 13.8748 16.0811C14.5947 17.1498 14.784 17.6322 14.8248 18.5154C14.8397 18.8828 14.8322 19.0424 14.784 19.2687C14.6875 19.6992 14.4649 20.1037 14.1457 20.4377C13.8526 20.7457 13.5928 20.9201 13.2106 21.0648C12.9916 21.1502 12.9063 21.1613 12.4981 21.1613C12.0899 21.1613 12.0045 21.1502 11.7856 21.0648C11.4033 20.9201 11.1436 20.7457 10.8541 20.4414C10.3643 19.933 10.1602 19.3912 10.1602 18.623C10.1602 18.3855 10.1787 18.0924 10.201 17.9699C10.2529 17.6805 10.3457 17.3613 10.3754 17.3613C10.3902 17.3613 10.4385 17.4244 10.483 17.5023C10.7279 17.9254 11.1102 18.1777 11.5518 18.2074C11.8524 18.226 11.9822 18.174 12.0453 17.9996C12.0676 17.9439 12.0936 17.6471 12.1084 17.3428C12.1567 16.1441 12.3088 15.5986 12.7801 14.8861C12.9693 14.6004 13.0547 14.5188 13.0547 14.6189Z" fill="#443E3E"/>
</svg>
