<svg width="25" height="25" viewBox="0 0 25 25" fill="none" xmlns="http://www.w3.org/2000/svg">
<path d="M13.5098 4.04347C13.2371 4.13437 13.0223 4.26245 12.8487 4.43185C12.7578 4.51861 11.948 5.62177 11.0432 6.88192C9.34096 9.26589 9.02696 9.67493 8.3411 10.3856L7.93207 10.8153L7.7544 10.5467C6.97352 9.34853 5.30846 9.17913 4.31273 10.1873C3.99459 10.5095 3.80867 10.8524 3.71777 11.2821C3.62687 11.7118 3.62687 18.8266 3.71777 19.2563C3.89543 20.0908 4.53997 20.756 5.35804 20.9502C6.29593 21.1692 7.27926 20.7726 7.77093 19.9752L7.9238 19.7314L8.3411 20.1363C8.81624 20.5908 9.1633 20.7932 9.70455 20.9296C10.0186 21.0081 10.1714 21.0122 13.2371 21.0122C16.7697 21.0122 16.7284 21.0122 17.2242 20.756C17.5382 20.5908 18.0298 20.1115 18.1703 19.8347C18.4678 19.2439 21.1493 13.1373 21.2278 12.8728C21.3063 12.6001 21.3187 12.4638 21.3187 11.7573C21.3187 11.0177 21.3104 10.931 21.2236 10.7202C21.0212 10.212 20.6493 9.83193 20.1824 9.63774C19.9552 9.54684 19.9428 9.54684 17.2407 9.53445C15.745 9.53032 14.5221 9.51379 14.5221 9.50553C14.5221 9.49313 14.7493 8.92296 15.022 8.23711C15.2988 7.54712 15.5674 6.86126 15.6211 6.70839C15.964 5.70027 15.5632 4.59298 14.7039 4.16742C14.427 4.03107 14.3485 4.01455 14.0345 4.00215C13.8156 3.99389 13.609 4.01042 13.5098 4.04347ZM14.3733 5.0516C14.6295 5.23339 14.8113 5.60937 14.8113 5.96469C14.8113 6.22086 14.77 6.34067 14.0882 8.04705C13.6916 9.04278 13.3652 9.91456 13.3652 9.98067C13.3652 10.1542 13.4354 10.2864 13.5718 10.3649C13.6751 10.4269 13.9643 10.4352 16.6581 10.4352C19.0297 10.4393 19.6577 10.4517 19.7817 10.493C20.0172 10.5798 20.2072 10.745 20.3105 10.9599C20.4014 11.1417 20.4097 11.2119 20.4056 11.7366C20.4056 12.0672 20.3808 12.4142 20.3518 12.5423C20.2981 12.7571 17.6249 18.8307 17.3605 19.3306C17.2118 19.6198 16.9845 19.8264 16.6747 19.9752L16.4433 20.0826L13.3652 20.095C9.92766 20.1074 9.91939 20.1074 9.45665 19.8306C9.3203 19.7479 8.97324 19.4463 8.6675 19.1406L8.11799 18.5952V15.2733V11.9556L8.81211 11.245C9.7376 10.2947 10.0309 9.91869 11.8778 7.3364C12.7496 6.1217 13.4892 5.10118 13.5263 5.07225C13.7784 4.86567 14.0965 4.85741 14.3733 5.0516ZM6.40335 10.555C6.67604 10.6748 6.9322 10.9392 7.06855 11.2326L7.18837 11.4887V15.2692V19.0497L7.06855 19.3058C6.84131 19.8058 6.41988 20.0785 5.88689 20.0785C5.35391 20.0785 4.93248 19.8058 4.70524 19.3058L4.58542 19.0497V15.2692V11.4887L4.70111 11.2408C5.01924 10.5591 5.75055 10.2658 6.40335 10.555Z" fill="#443E3E"/>
</svg>
