<svg width="25" height="25" viewBox="0 0 25 25" fill="none" xmlns="http://www.w3.org/2000/svg">
<path d="M10.6104 1.66509C9.89258 1.93853 9.43848 2.87115 9.63867 3.6524C9.78028 4.21392 10.083 4.56549 10.6445 4.82428C11.2793 5.11724 11.5869 5.0733 11.6504 4.68756C11.6895 4.44342 11.5479 4.28228 11.1426 4.13092C10.5762 3.91119 10.3223 3.50591 10.4492 3.02252C10.6445 2.29498 11.5723 2.16802 12.1338 2.79302C12.3682 3.05181 12.5 3.3399 12.5 3.61334C12.5 3.73053 12.3877 4.40924 12.251 5.11236L12.002 6.40142L11.8213 6.294C10.0732 5.25885 8.66211 4.99517 8.01758 5.58599C7.86133 5.7276 7.76367 5.92291 7.66602 6.29889C7.62207 6.47467 6.2793 10.0098 4.69239 14.1602C2.78321 19.1358 1.792 21.7872 1.77246 21.9532C1.71387 22.5147 2.06543 23.1104 2.59278 23.3399C2.80274 23.4278 2.91504 23.4424 3.21778 23.4278C3.56934 23.4083 3.98438 23.252 11.1816 20.4981C15.3564 18.8965 18.8916 17.5635 19.0283 17.5294C20.1465 17.2706 20.2539 16.0889 19.3359 14.17C19.1748 13.8428 18.9258 13.3838 18.7793 13.1592L18.5107 12.7491L18.7402 12.7051C18.8672 12.6758 19.4629 12.5635 20.0586 12.4463C21.2793 12.212 21.4063 12.2169 21.8018 12.4903C22.5342 12.9981 22.5977 13.9063 21.9238 14.2432C21.6699 14.3751 21.4551 14.3848 21.2012 14.2823C20.9375 14.17 20.8203 14.0381 20.6738 13.6768C20.4932 13.2471 20.3906 13.1348 20.166 13.1348C19.9463 13.1348 19.79 13.2422 19.751 13.4229C19.6875 13.711 20.1221 14.5899 20.4492 14.8292C20.8203 15.1026 21.001 15.1612 21.4844 15.1612C21.8848 15.1612 21.9873 15.1417 22.2266 15.0294C23.1836 14.585 23.4961 13.5938 22.9981 12.5977C22.6465 11.8995 21.9043 11.4258 21.1572 11.4258C20.9912 11.4258 18.335 11.9092 18.0615 11.9922C18.0127 12.0069 17.876 11.8751 17.6465 11.587C16.4551 10.0733 14.5801 8.24713 13.1494 7.20221C12.8906 7.01178 12.7539 6.88482 12.7686 6.83599C12.7783 6.79693 12.9102 6.11334 13.0615 5.32232C13.291 4.14068 13.335 3.81353 13.3203 3.49127C13.2813 2.64654 12.7344 1.95318 11.875 1.66509C11.4795 1.53326 10.957 1.53326 10.6104 1.66509ZM9.77051 6.25006C10.4199 6.4649 11.8164 7.20221 11.8164 7.32916C11.8164 7.35357 11.7383 7.78326 11.6406 8.27642C11.4893 9.03814 11.4697 9.19928 11.5186 9.32135C11.626 9.57525 11.9824 9.65338 12.1777 9.45806C12.2656 9.37017 12.3145 9.19439 12.4268 8.60357C12.5049 8.1983 12.583 7.86138 12.6025 7.86138C12.6758 7.86138 13.7305 8.73053 14.4189 9.36041C15.1318 10.0147 16.0156 10.9376 16.6699 11.7188L17.0557 12.1827L16.2402 12.3389C15.7178 12.4366 15.3857 12.5245 15.3272 12.5782C15.1953 12.6954 15.2002 13.0518 15.332 13.1837C15.4639 13.3155 15.6055 13.3106 16.626 13.1104C17.1094 13.0176 17.5293 12.9395 17.5586 12.9395C17.6465 12.9395 18.2959 13.9649 18.5889 14.5557C19.0234 15.4395 19.2188 16.1573 19.0967 16.4649C18.916 16.9336 18.1836 16.8458 16.8701 16.1915C14.1162 14.8243 10.332 11.0254 8.98438 8.27642C8.6084 7.50494 8.48145 7.13385 8.47657 6.73346C8.47168 6.46978 8.49121 6.38678 8.56934 6.29889C8.78418 6.05963 9.15528 6.0401 9.77051 6.25006ZM8.90137 9.82428C9.12598 10.1807 9.5166 10.8155 9.76563 11.2305C11.3477 13.8526 12.915 16.045 14.5947 17.9786L14.7949 18.2032L14.2236 18.4278L13.6475 18.6573L13.3643 18.3497C11.6797 16.5381 9.58008 13.5547 7.6709 10.2588L7.31934 9.65338L7.62207 8.83795L7.92969 8.02252L8.21289 8.60357C8.36426 8.92095 8.67676 9.46783 8.90137 9.82428ZM7.37305 11.4258C8.87207 13.9893 10.7666 16.6797 12.3096 18.4376L12.7881 18.9795L12.2266 19.1895C11.7432 19.3702 11.6553 19.3897 11.6016 19.3311C11.3525 19.0674 10.4248 17.9151 9.94141 17.2706C8.98926 15.9961 7.29004 13.418 6.60157 12.2022L6.44532 11.9239L6.67481 11.3135C6.85059 10.8545 6.92383 10.7129 6.96289 10.7569C6.99219 10.7911 7.17774 11.0889 7.37305 11.4258ZM6.4795 13.6329C7.71973 15.669 9.44825 18.1251 10.5078 19.3555C10.6689 19.5411 10.7813 19.7071 10.7568 19.7315C10.7373 19.751 10.4932 19.8536 10.2148 19.961L9.7168 20.1563L9.20899 19.5118C8.06641 18.0665 6.40625 15.6446 5.70313 14.4044L5.57617 14.1846L5.80567 13.5889C5.92774 13.2569 6.04493 12.9883 6.05957 12.9883C6.07422 12.9883 6.26465 13.2813 6.4795 13.6329ZM13.9893 15.3126C14.7363 15.9034 15.8887 16.6553 16.543 16.9727C16.8701 17.129 17.1338 17.2706 17.1338 17.2852C17.1387 17.2999 16.8018 17.4415 16.3965 17.5977L15.6494 17.8809L15.4395 17.6417C14.5361 16.6309 13.8135 15.7325 13.1348 14.795L12.7246 14.2335L13.1152 14.5801C13.3252 14.7706 13.7207 15.0977 13.9893 15.3126ZM5.49805 15.6836C6.37696 17.0801 7.55371 18.7696 8.40821 19.8633C8.64258 20.1661 8.83789 20.4297 8.83789 20.4542C8.83789 20.4737 8.60352 20.5811 8.31543 20.6885L7.79297 20.8838L7.61719 20.6592C6.75782 19.5704 4.73633 16.6114 4.73633 16.4405C4.73633 16.4063 4.81934 16.1573 4.92188 15.8887C5.02442 15.6251 5.12696 15.3663 5.1416 15.3174C5.16114 15.2735 5.18067 15.2344 5.19043 15.2344C5.20508 15.2344 5.3418 15.4395 5.49805 15.6836ZM4.54102 17.7588C4.80469 18.1934 5.86426 19.7266 6.40625 20.4542C6.67481 20.8106 6.89942 21.128 6.91407 21.1622C6.9336 21.211 6.06446 21.5821 5.92285 21.5821C5.8545 21.5821 5.25391 20.7618 4.42383 19.5411L3.85254 18.7012L4.08203 18.0909C4.20899 17.754 4.32617 17.4805 4.34571 17.4805C4.36035 17.4805 4.44825 17.6075 4.54102 17.7588ZM3.8086 20.1417C3.95508 20.3565 4.28711 20.835 4.55078 21.2012C4.81446 21.5723 5.0293 21.8897 5.0293 21.9092C5.0293 21.9727 3.27149 22.6221 3.12012 22.6172C2.86621 22.6124 2.58789 22.3292 2.58789 22.085C2.58789 22.0069 2.70508 21.6797 3.30567 20.127C3.39844 19.878 3.4961 19.6876 3.51563 19.712C3.53516 19.7315 3.667 19.9268 3.8086 20.1417Z" fill="white"/>
<path d="M13.8379 9.66309C13.6719 9.73633 13.5254 9.96094 13.5254 10.1367C13.5254 10.249 13.5742 10.3516 13.6768 10.4736C13.8086 10.6201 13.8574 10.6445 14.0479 10.6445C14.502 10.6445 14.7217 10.1514 14.4189 9.81445C14.2725 9.65332 14.0186 9.58984 13.8379 9.66309Z" fill="white"/>
<path d="M14.79 2.58303C14.6094 2.76857 14.6094 2.86135 14.8145 3.26174C15.0537 3.74025 15.1367 4.09181 15.1709 4.78517C15.2002 5.41506 15.1416 6.12306 15.0098 6.77248C14.9316 7.14357 14.9561 7.27541 15.1318 7.40724C15.2637 7.50978 15.5469 7.48537 15.6592 7.35842C15.8399 7.16799 16.0156 6.02541 16.0156 5.07814C16.0156 3.33498 15.3662 2.01174 14.79 2.58303Z" fill="white"/>
<path d="M17.3779 3.21785C17.2656 3.33015 17.2363 3.40339 17.2363 3.56453C17.2363 3.81843 17.2998 3.93562 17.4805 4.02839C17.9346 4.26277 18.418 3.81843 18.1934 3.3741C18.0273 3.0616 17.6172 2.97859 17.3779 3.21785Z" fill="white"/>
<path d="M18.3594 5.80566C17.8857 5.96191 17.5049 6.32324 17.3291 6.78223C17.0752 7.46094 17.417 8.26172 18.1055 8.60352C18.2861 8.69141 18.4131 8.71582 18.7256 8.71582C19.209 8.71582 19.502 8.5791 19.8389 8.20312C20.127 7.88574 20.2344 7.56836 20.2051 7.13379C20.1514 6.37207 19.5801 5.81055 18.8281 5.78125C18.6377 5.77148 18.4277 5.78125 18.3594 5.80566ZM19.0332 6.68945C19.4043 6.91406 19.4873 7.37793 19.2139 7.66602C18.9258 7.96875 18.5742 7.97852 18.2861 7.69043C17.9736 7.37305 18.0225 6.95801 18.4033 6.7041C18.6084 6.56738 18.8232 6.5625 19.0332 6.68945Z" fill="white"/>
<path d="M21.6504 9.66797C21.4941 9.73145 21.3379 9.95605 21.3379 10.1172C21.3379 10.4297 21.5527 10.6396 21.8652 10.6445C22.4121 10.6445 22.5586 9.94629 22.0703 9.69238C21.9141 9.60938 21.8018 9.60449 21.6504 9.66797Z" fill="white"/>
</svg>
