<svg width="188" height="50" viewBox="0 0 188 50" fill="none" xmlns="http://www.w3.org/2000/svg">
<path d="M33.5885 9.15064L42.5885 25L33.5885 40.8494L15.5885 40.8494L6.58846 25L15.5885 9.15063L33.5885 9.15064Z" fill="#013FFF"/>
<path d="M17 25.0352C17 20.7549 20.4698 17.2852 24.75 17.2852C29.0302 17.2852 32.5 20.7549 32.5 25.0352V25.2946C32.5 29.5748 29.0302 33.0446 24.75 33.0446C20.4698 33.0446 17 29.5748 17 25.2946V25.0352Z" fill="white"/>
<path d="M60.34 24.3116V27.0516H56.62V38.3516H53.2V27.0516H49.48V24.3116H60.34ZM65.4764 29.0516C65.8764 28.4382 66.3764 27.9582 66.9764 27.6116C67.5764 27.2516 68.2431 27.0716 68.9764 27.0716V30.6916H68.0364C67.1831 30.6916 66.5431 30.8782 66.1164 31.2516C65.6897 31.6116 65.4764 32.2516 65.4764 33.1716V38.3516H62.0564V27.1916H65.4764V29.0516ZM69.9311 32.7516C69.9311 31.6049 70.1444 30.5982 70.5711 29.7316C71.0111 28.8649 71.6044 28.1982 72.3511 27.7316C73.0978 27.2649 73.9311 27.0316 74.8511 27.0316C75.6378 27.0316 76.3244 27.1916 76.9111 27.5116C77.5111 27.8316 77.9711 28.2516 78.2911 28.7716V27.1916H81.7111V38.3516H78.2911V36.7716C77.9578 37.2916 77.4911 37.7116 76.8911 38.0316C76.3044 38.3516 75.6178 38.5116 74.8311 38.5116C73.9244 38.5116 73.0978 38.2782 72.3511 37.8116C71.6044 37.3316 71.0111 36.6582 70.5711 35.7916C70.1444 34.9116 69.9311 33.8982 69.9311 32.7516ZM78.2911 32.7716C78.2911 31.9182 78.0511 31.2449 77.5711 30.7516C77.1044 30.2582 76.5311 30.0116 75.8511 30.0116C75.1711 30.0116 74.5911 30.2582 74.1111 30.7516C73.6444 31.2316 73.4111 31.8982 73.4111 32.7516C73.4111 33.6049 73.6444 34.2849 74.1111 34.7916C74.5911 35.2849 75.1711 35.5316 75.8511 35.5316C76.5311 35.5316 77.1044 35.2849 77.5711 34.7916C78.0511 34.2982 78.2911 33.6249 78.2911 32.7716ZM83.5053 32.7716C83.5053 31.6116 83.7386 30.5982 84.2053 29.7316C84.6853 28.8649 85.3453 28.1982 86.1853 27.7316C87.0386 27.2649 88.012 27.0316 89.1053 27.0316C90.5053 27.0316 91.672 27.3982 92.6053 28.1316C93.552 28.8649 94.172 29.8982 94.4653 31.2316H90.8253C90.5186 30.3782 89.9253 29.9516 89.0453 29.9516C88.4186 29.9516 87.9186 30.1982 87.5453 30.6916C87.172 31.1716 86.9853 31.8649 86.9853 32.7716C86.9853 33.6782 87.172 34.3782 87.5453 34.8716C87.9186 35.3516 88.4186 35.5916 89.0453 35.5916C89.9253 35.5916 90.5186 35.1649 90.8253 34.3116H94.4653C94.172 35.6182 93.552 36.6449 92.6053 37.3916C91.6586 38.1382 90.492 38.5116 89.1053 38.5116C88.012 38.5116 87.0386 38.2782 86.1853 37.8116C85.3453 37.3449 84.6853 36.6782 84.2053 35.8116C83.7386 34.9449 83.5053 33.9316 83.5053 32.7716ZM103.115 38.3516L99.7147 33.6716V38.3516H96.2947V23.5516H99.7147V31.7316L103.095 27.1916H107.315L102.675 32.7916L107.355 38.3516H103.115ZM117.976 38.4916C116.95 38.4916 116.03 38.3249 115.216 37.9916C114.403 37.6582 113.75 37.1649 113.256 36.5116C112.776 35.8582 112.523 35.0716 112.496 34.1516H116.136C116.19 34.6716 116.37 35.0716 116.676 35.3516C116.983 35.6182 117.383 35.7516 117.876 35.7516C118.383 35.7516 118.783 35.6382 119.076 35.4116C119.37 35.1716 119.516 34.8449 119.516 34.4316C119.516 34.0849 119.396 33.7982 119.156 33.5716C118.93 33.3449 118.643 33.1582 118.296 33.0116C117.963 32.8649 117.483 32.6982 116.856 32.5116C115.95 32.2316 115.21 31.9516 114.636 31.6716C114.063 31.3916 113.57 30.9782 113.156 30.4316C112.743 29.8849 112.536 29.1716 112.536 28.2916C112.536 26.9849 113.01 25.9649 113.956 25.2316C114.903 24.4849 116.136 24.1116 117.656 24.1116C119.203 24.1116 120.45 24.4849 121.396 25.2316C122.343 25.9649 122.85 26.9916 122.916 28.3116H119.216C119.19 27.8582 119.023 27.5049 118.716 27.2516C118.41 26.9849 118.016 26.8516 117.536 26.8516C117.123 26.8516 116.79 26.9649 116.536 27.1916C116.283 27.4049 116.156 27.7182 116.156 28.1316C116.156 28.5849 116.37 28.9382 116.796 29.1916C117.223 29.4449 117.89 29.7182 118.796 30.0116C119.703 30.3182 120.436 30.6116 120.996 30.8916C121.57 31.1716 122.063 31.5782 122.476 32.1116C122.89 32.6449 123.096 33.3316 123.096 34.1716C123.096 34.9716 122.89 35.6982 122.476 36.3516C122.076 37.0049 121.49 37.5249 120.716 37.9116C119.943 38.2982 119.03 38.4916 117.976 38.4916ZM135.721 32.5916C135.721 32.9116 135.701 33.2449 135.661 33.5916H127.921C127.974 34.2849 128.194 34.8182 128.581 35.1916C128.981 35.5516 129.468 35.7316 130.041 35.7316C130.894 35.7316 131.488 35.3716 131.821 34.6516H135.461C135.274 35.3849 134.934 36.0449 134.441 36.6316C133.961 37.2182 133.354 37.6782 132.621 38.0116C131.888 38.3449 131.068 38.5116 130.161 38.5116C129.068 38.5116 128.094 38.2782 127.241 37.8116C126.388 37.3449 125.721 36.6782 125.241 35.8116C124.761 34.9449 124.521 33.9316 124.521 32.7716C124.521 31.6116 124.754 30.5982 125.221 29.7316C125.701 28.8649 126.368 28.1982 127.221 27.7316C128.074 27.2649 129.054 27.0316 130.161 27.0316C131.241 27.0316 132.201 27.2582 133.041 27.7116C133.881 28.1649 134.534 28.8116 135.001 29.6516C135.481 30.4916 135.721 31.4716 135.721 32.5916ZM132.221 31.6916C132.221 31.1049 132.021 30.6382 131.621 30.2916C131.221 29.9449 130.721 29.7716 130.121 29.7716C129.548 29.7716 129.061 29.9382 128.661 30.2716C128.274 30.6049 128.034 31.0782 127.941 31.6916H132.221ZM140.945 29.0516C141.345 28.4382 141.845 27.9582 142.445 27.6116C143.045 27.2516 143.712 27.0716 144.445 27.0716V30.6916H143.505C142.652 30.6916 142.012 30.8782 141.585 31.2516C141.158 31.6116 140.945 32.2516 140.945 33.1716V38.3516H137.525V27.1916H140.945V29.0516ZM151.1 35.1516L153.52 27.1916H157.16L153.2 38.3516H148.98L145.02 27.1916H148.68L151.1 35.1516ZM160.319 26.0316C159.719 26.0316 159.226 25.8582 158.839 25.5116C158.466 25.1516 158.279 24.7116 158.279 24.1916C158.279 23.6582 158.466 23.2182 158.839 22.8716C159.226 22.5116 159.719 22.3316 160.319 22.3316C160.906 22.3316 161.386 22.5116 161.759 22.8716C162.146 23.2182 162.339 23.6582 162.339 24.1916C162.339 24.7116 162.146 25.1516 161.759 25.5116C161.386 25.8582 160.906 26.0316 160.319 26.0316ZM162.019 27.1916V38.3516H158.599V27.1916H162.019ZM163.818 32.7716C163.818 31.6116 164.051 30.5982 164.518 29.7316C164.998 28.8649 165.658 28.1982 166.498 27.7316C167.351 27.2649 168.324 27.0316 169.418 27.0316C170.818 27.0316 171.984 27.3982 172.918 28.1316C173.864 28.8649 174.484 29.8982 174.778 31.2316H171.138C170.831 30.3782 170.238 29.9516 169.358 29.9516C168.731 29.9516 168.231 30.1982 167.858 30.6916C167.484 31.1716 167.298 31.8649 167.298 32.7716C167.298 33.6782 167.484 34.3782 167.858 34.8716C168.231 35.3516 168.731 35.5916 169.358 35.5916C170.238 35.5916 170.831 35.1649 171.138 34.3116H174.778C174.484 35.6182 173.864 36.6449 172.918 37.3916C171.971 38.1382 170.804 38.5116 169.418 38.5116C168.324 38.5116 167.351 38.2782 166.498 37.8116C165.658 37.3449 164.998 36.6782 164.518 35.8116C164.051 34.9449 163.818 33.9316 163.818 32.7716ZM187.127 32.5916C187.127 32.9116 187.107 33.2449 187.067 33.5916H179.327C179.381 34.2849 179.601 34.8182 179.987 35.1916C180.387 35.5516 180.874 35.7316 181.447 35.7316C182.301 35.7316 182.894 35.3716 183.227 34.6516H186.867C186.681 35.3849 186.341 36.0449 185.847 36.6316C185.367 37.2182 184.761 37.6782 184.027 38.0116C183.294 38.3449 182.474 38.5116 181.567 38.5116C180.474 38.5116 179.501 38.2782 178.647 37.8116C177.794 37.3449 177.127 36.6782 176.647 35.8116C176.167 34.9449 175.927 33.9316 175.927 32.7716C175.927 31.6116 176.161 30.5982 176.627 29.7316C177.107 28.8649 177.774 28.1982 178.627 27.7316C179.481 27.2649 180.461 27.0316 181.567 27.0316C182.647 27.0316 183.607 27.2582 184.447 27.7116C185.287 28.1649 185.941 28.8116 186.407 29.6516C186.887 30.4916 187.127 31.4716 187.127 32.5916ZM183.627 31.6916C183.627 31.1049 183.427 30.6382 183.027 30.2916C182.627 29.9449 182.127 29.7716 181.527 29.7716C180.954 29.7716 180.467 29.9382 180.067 30.2716C179.681 30.6049 179.441 31.0782 179.347 31.6916H183.627Z" fill="#013FFF"/>
</svg>
