<svg width="120" height="20" viewBox="0 0 120 20" fill="none" xmlns="http://www.w3.org/2000/svg">
<path fill-rule="evenodd" clip-rule="evenodd" d="M9.69661 0.0601704C9.6261 0.0932621 9.53665 0.163982 9.49782 0.217337C9.45899 0.27073 8.8086 1.5696 8.05258 3.10379L6.67794 5.8932L3.55438 6.34682C1.65594 6.62252 0.384068 6.82345 0.311607 6.85907C0.173677 6.927 0.0505914 7.10187 0.0152008 7.28023C-0.0429242 7.57303 -0.0218694 7.59787 1.74774 9.32466C2.66294 10.2177 3.68973 11.2161 4.02954 11.5433L4.64731 12.1382L4.12102 15.2057C3.83153 16.8928 3.59461 18.3418 3.59454 18.4257C3.59403 18.844 4.09063 19.1181 4.49567 18.9232C4.59075 18.8774 5.86071 18.213 7.31778 17.4467C8.86266 16.6343 9.99497 16.0605 10.034 16.0702C10.0709 16.0794 11.2781 16.7062 12.7168 17.463C15.9196 19.1479 15.6375 19.0108 15.8518 18.9878C16.1563 18.9551 16.4071 18.701 16.4065 18.4257C16.4064 18.3418 16.1694 16.8928 15.8799 15.2057L15.3536 12.1382L15.9715 11.5433C16.3114 11.2161 17.3382 10.2177 18.2534 9.32466C20.0231 7.59787 20.0441 7.57303 19.986 7.28023C19.9504 7.10101 19.8273 6.92689 19.6875 6.85807C19.6124 6.82111 18.3827 6.62672 16.4534 6.34689C14.7413 6.09855 13.3279 5.87781 13.3124 5.85632C13.297 5.83486 12.6746 4.57912 11.9291 3.06583C11.1838 1.55253 10.5419 0.270433 10.5028 0.216705C10.354 0.0120201 9.96165 -0.0641652 9.69661 0.0601704Z" fill="#FCCD05"/>
<path fill-rule="evenodd" clip-rule="evenodd" d="M34.6966 0.0601704C34.6261 0.0932621 34.5366 0.163982 34.4978 0.217337C34.459 0.27073 33.8086 1.5696 33.0526 3.10379L31.6779 5.8932L28.5544 6.34682C26.6559 6.62252 25.3841 6.82345 25.3116 6.85907C25.1737 6.927 25.0506 7.10187 25.0152 7.28023C24.9571 7.57303 24.9781 7.59787 26.7477 9.32466C27.6629 10.2177 28.6897 11.2161 29.0295 11.5433L29.6473 12.1382L29.121 15.2057C28.8315 16.8928 28.5946 18.3418 28.5945 18.4257C28.594 18.844 29.0906 19.1181 29.4957 18.9232C29.5907 18.8774 30.8607 18.213 32.3178 17.4467C33.8627 16.6343 34.995 16.0605 35.034 16.0702C35.0709 16.0794 36.2781 16.7062 37.7168 17.463C40.9196 19.1479 40.6375 19.0108 40.8518 18.9878C41.1563 18.9551 41.4071 18.701 41.4065 18.4257C41.4064 18.3418 41.1694 16.8928 40.8799 15.2057L40.3536 12.1382L40.9715 11.5433C41.3114 11.2161 42.3382 10.2177 43.2534 9.32466C45.0231 7.59787 45.0441 7.57303 44.986 7.28023C44.9504 7.10101 44.8273 6.92689 44.6875 6.85807C44.6124 6.82111 43.3827 6.62672 41.4534 6.34689C39.7413 6.09855 38.3279 5.87781 38.3124 5.85632C38.297 5.83486 37.6746 4.57912 36.9291 3.06583C36.1838 1.55253 35.5419 0.270433 35.5028 0.216705C35.354 0.0120201 34.9616 -0.0641652 34.6966 0.0601704Z" fill="#FCCD05"/>
<path fill-rule="evenodd" clip-rule="evenodd" d="M59.6966 0.0601704C59.6261 0.0932621 59.5366 0.163982 59.4978 0.217337C59.459 0.27073 58.8086 1.5696 58.0526 3.10379L56.6779 5.8932L53.5544 6.34682C51.6559 6.62252 50.3841 6.82345 50.3116 6.85907C50.1737 6.927 50.0506 7.10187 50.0152 7.28023C49.9571 7.57303 49.9781 7.59787 51.7477 9.32466C52.6629 10.2177 53.6897 11.2161 54.0295 11.5433L54.6473 12.1382L54.121 15.2057C53.8315 16.8928 53.5946 18.3418 53.5945 18.4257C53.594 18.844 54.0906 19.1181 54.4957 18.9232C54.5907 18.8774 55.8607 18.213 57.3178 17.4467C58.8627 16.6343 59.995 16.0605 60.034 16.0702C60.0709 16.0794 61.2781 16.7062 62.7168 17.463C65.9196 19.1479 65.6375 19.0108 65.8518 18.9878C66.1563 18.9551 66.4071 18.701 66.4065 18.4257C66.4064 18.3418 66.1694 16.8928 65.8799 15.2057L65.3536 12.1382L65.9715 11.5433C66.3114 11.2161 67.3382 10.2177 68.2534 9.32466C70.0231 7.59787 70.0441 7.57303 69.986 7.28023C69.9504 7.10101 69.8273 6.92689 69.6875 6.85807C69.6124 6.82111 68.3827 6.62672 66.4534 6.34689C64.7413 6.09855 63.3279 5.87781 63.3124 5.85632C63.297 5.83486 62.6746 4.57912 61.9291 3.06583C61.1838 1.55253 60.5419 0.270433 60.5028 0.216705C60.354 0.0120201 59.9616 -0.0641652 59.6966 0.0601704Z" fill="#FCCD05"/>
<path fill-rule="evenodd" clip-rule="evenodd" d="M84.6966 0.0601704C84.6261 0.0932621 84.5366 0.163982 84.4978 0.217337C84.459 0.27073 83.8086 1.5696 83.0526 3.10379L81.6779 5.8932L78.5544 6.34682C76.6559 6.62252 75.3841 6.82345 75.3116 6.85907C75.1737 6.927 75.0506 7.10187 75.0152 7.28023C74.9571 7.57303 74.9781 7.59787 76.7477 9.32466C77.6629 10.2177 78.6897 11.2161 79.0295 11.5433L79.6473 12.1382L79.121 15.2057C78.8315 16.8928 78.5946 18.3418 78.5945 18.4257C78.594 18.844 79.0906 19.1181 79.4957 18.9232C79.5907 18.8774 80.8607 18.213 82.3178 17.4467C83.8627 16.6343 84.995 16.0605 85.034 16.0702C85.0709 16.0794 86.2781 16.7062 87.7168 17.463C90.9196 19.1479 90.6375 19.0108 90.8518 18.9878C91.1563 18.9551 91.4071 18.701 91.4065 18.4257C91.4064 18.3418 91.1694 16.8928 90.8799 15.2057L90.3536 12.1382L90.9715 11.5433C91.3114 11.2161 92.3382 10.2177 93.2534 9.32466C95.0231 7.59787 95.0441 7.57303 94.986 7.28023C94.9504 7.10101 94.8273 6.92689 94.6875 6.85807C94.6124 6.82111 93.3827 6.62672 91.4534 6.34689C89.7413 6.09855 88.3279 5.87781 88.3124 5.85632C88.297 5.83486 87.6746 4.57912 86.9291 3.06583C86.1838 1.55253 85.5419 0.270433 85.5028 0.216705C85.354 0.0120201 84.9616 -0.0641652 84.6966 0.0601704Z" fill="#FCCD05"/>
<path fill-rule="evenodd" clip-rule="evenodd" d="M109.697 0.0601704C109.626 0.0932621 109.537 0.163982 109.498 0.217337C109.459 0.27073 108.809 1.5696 108.053 3.10379L106.678 5.8932L103.554 6.34682C101.656 6.62252 100.384 6.82345 100.312 6.85907C100.174 6.927 100.051 7.10187 100.015 7.28023C99.9571 7.57303 99.9781 7.59787 101.748 9.32466C102.663 10.2177 103.69 11.2161 104.03 11.5433L104.647 12.1382L104.121 15.2057C103.832 16.8928 103.595 18.3418 103.595 18.4257C103.594 18.844 104.091 19.1181 104.496 18.9232C104.591 18.8774 105.861 18.213 107.318 17.4467C108.863 16.6343 109.995 16.0605 110.034 16.0702C110.071 16.0794 111.278 16.7062 112.717 17.463C115.92 19.1479 115.638 19.0108 115.852 18.9878C116.156 18.9551 116.407 18.701 116.407 18.4257C116.406 18.3418 116.169 16.8928 115.88 15.2057L115.354 12.1382L115.972 11.5433C116.311 11.2161 117.338 10.2177 118.253 9.32466C120.023 7.59787 120.044 7.57303 119.986 7.28023C119.95 7.10101 119.827 6.92689 119.688 6.85807C119.612 6.82111 118.383 6.62672 116.453 6.34689C114.741 6.09855 113.328 5.87781 113.312 5.85632C113.297 5.83486 112.675 4.57912 111.929 3.06583C111.184 1.55253 110.542 0.270433 110.503 0.216705C110.354 0.0120201 109.962 -0.0641652 109.697 0.0601704Z" fill="#FDEFB6"/>
</svg>
