<svg width="60" height="60" viewBox="0 0 60 60" fill="none" xmlns="http://www.w3.org/2000/svg">
<circle cx="30" cy="30" r="30" fill="#013FFF"/>
<g clip-path="url(#clip0_509_36464)">
<path d="M30.0723 19.4144C33.5436 19.4144 33.9526 19.4273 35.3256 19.49C36.1499 19.4997 36.9664 19.6512 37.7393 19.9377C38.3032 20.1462 38.8131 20.4784 39.2318 20.9098C39.6628 21.3287 39.9949 21.8386 40.2038 22.4022C40.4905 23.1751 40.6419 23.9916 40.6516 24.816C40.7142 26.187 40.7272 26.5979 40.7272 30.0683C40.7272 33.5387 40.7142 33.9486 40.6516 35.3216C40.6419 36.1459 40.4905 36.9624 40.2038 37.7354C39.9953 38.2992 39.6632 38.8091 39.2318 39.2278C38.8134 39.6598 38.3034 39.9923 37.7393 40.2008C36.9664 40.4874 36.1499 40.6388 35.3256 40.6486C33.9546 40.7113 33.5436 40.7242 30.0723 40.7242C26.6009 40.7242 26.192 40.7113 24.8189 40.6486C23.9946 40.6387 23.1782 40.4873 22.4052 40.2008C21.8411 39.9923 21.3311 39.6598 20.9128 39.2278C20.4814 38.8091 20.1492 38.2992 19.9407 37.7354C19.6541 36.9624 19.5026 36.1459 19.493 35.3216C19.4303 33.9506 19.4174 33.5397 19.4174 30.0683C19.4174 26.5969 19.4303 26.188 19.493 24.816C19.5026 23.9916 19.6541 23.1751 19.9407 22.4022C20.1496 21.8386 20.4817 21.3287 20.9128 20.9098C21.3314 20.4784 21.8414 20.1462 22.4052 19.9377C23.1782 19.6513 23.9946 19.4998 24.8189 19.49C26.192 19.4273 26.6009 19.4144 30.0723 19.4144ZM30.0723 17.0723C26.5422 17.0723 26.0994 17.0872 24.7125 17.1499C23.6342 17.1719 22.5675 17.3765 21.5575 17.7548C20.6897 18.081 19.9037 18.5927 19.2542 19.2542C18.593 19.9035 18.0813 20.6892 17.7548 21.5565C17.3763 22.5667 17.1721 23.6339 17.1509 24.7125C17.0872 26.0984 17.0723 26.5412 17.0723 30.0713C17.0723 33.6013 17.0872 34.0451 17.1509 35.4311C17.1721 36.5096 17.3763 37.5768 17.7548 38.587C18.0813 39.4543 18.593 40.24 19.2542 40.8893C19.9039 41.5506 20.6899 42.0622 21.5575 42.3887C22.5674 42.7672 23.6342 42.9714 24.7125 42.9927C26.0994 43.0563 26.5422 43.0713 30.0723 43.0713C33.6023 43.0713 34.0451 43.0563 35.4321 42.9927C36.5103 42.9714 37.5772 42.7672 38.587 42.3887C39.4546 42.0622 40.2406 41.5506 40.8903 40.8893C41.5515 40.24 42.0632 39.4543 42.3897 38.587C42.7682 37.5768 42.9724 36.5096 42.9937 35.4311C43.0573 34.0451 43.0723 33.6023 43.0723 30.0713C43.0723 26.5402 43.0573 26.0984 42.9937 24.7125C42.9724 23.6339 42.7682 22.5667 42.3897 21.5565C42.0632 20.6892 41.5515 19.9035 40.8903 19.2542C40.2409 18.5927 39.4548 18.081 38.587 17.7548C37.5771 17.3765 36.5103 17.1719 35.4321 17.1499C34.0451 17.0872 33.6023 17.0723 30.0723 17.0723Z" fill="white"/>
<path d="M30.0716 23.3965C28.3012 23.3965 26.6034 24.0998 25.3516 25.3516C24.0998 26.6034 23.3965 28.3012 23.3965 30.0716C23.3965 31.842 24.0997 33.54 25.3515 34.792C26.6033 36.0439 28.3012 36.7474 30.0716 36.7477C30.9483 36.7477 31.8164 36.575 32.6263 36.2395C33.4362 35.904 34.1721 35.4122 34.792 34.7923C35.4118 34.1723 35.9035 33.4363 36.2389 32.6264C36.5743 31.8164 36.7468 30.9483 36.7467 30.0716C36.7467 29.195 36.5741 28.327 36.2386 27.5171C35.9031 26.7073 35.4115 25.9714 34.7916 25.3516C34.1718 24.7317 33.4359 24.2401 32.626 23.9046C31.8162 23.5691 30.9482 23.3965 30.0716 23.3965ZM30.0716 34.4056C29.5025 34.4056 28.939 34.2935 28.4132 34.0757C27.8874 33.8579 27.4097 33.5386 27.0073 33.1361C26.605 32.7337 26.2858 32.2559 26.0681 31.7301C25.8504 31.2042 25.7385 30.6407 25.7386 30.0716C25.7386 28.9224 26.1951 27.8203 27.0077 27.0077C27.8203 26.1951 28.9224 25.7386 30.0716 25.7386C31.2208 25.7386 32.3229 26.1951 33.1355 27.0077C33.9481 27.8203 34.4046 28.9224 34.4046 30.0716C34.4047 30.6407 34.2927 31.2042 34.0751 31.7301C33.8574 32.2559 33.5382 32.7337 33.1358 33.1361C32.7335 33.5386 32.2558 33.8579 31.73 34.0757C31.2042 34.2935 30.6407 34.4056 30.0716 34.4056Z" fill="white"/>
<path d="M38.5713 23.1323C38.5713 23.5461 38.407 23.9429 38.1144 24.2355C37.8218 24.5281 37.425 24.6924 37.0113 24.6924C36.5975 24.6924 36.2007 24.5281 35.9081 24.2355C35.6155 23.9429 35.4512 23.5461 35.4512 23.1323C35.4512 22.7186 35.6155 22.3218 35.9081 22.0292C36.2007 21.7366 36.5975 21.5723 37.0113 21.5723C37.425 21.5723 37.8218 21.7366 38.1144 22.0292C38.407 22.3218 38.5713 22.7186 38.5713 23.1323Z" fill="white"/>
</g>
<defs>
<clipPath id="clip0_509_36464">
<rect width="26" height="25.999" fill="white" transform="translate(17.0723 17.0723)"/>
</clipPath>
</defs>
</svg>
