<svg width="40" height="40" viewBox="0 0 40 40" fill="none" xmlns="http://www.w3.org/2000/svg">
<g clip-path="url(#clip0_2702_14597)">
<circle cx="20.1665" cy="20" r="20" fill="white"/>
<path d="M9.62551 16.9846C9.73458 17.6393 9.14 23.9681 8.80661 23.9681C8.47322 23.9681 7.90841 17.5301 7.98822 16.9846C8.09337 16.2657 8.53382 15.5115 8.80661 15.5115C9.07941 15.5115 9.50956 16.2886 9.62551 16.9846Z" fill="#E81212"/>
<path d="M9.62563 35.9166C9.7347 35.2619 9.14013 28.933 8.80673 28.933C8.47334 28.933 7.90853 35.371 7.98835 35.9166C8.09349 36.6355 8.53394 37.3897 8.80673 37.3897C9.07953 37.3897 9.50968 36.6126 9.62563 35.9166Z" fill="#E81212"/>
<path d="M4.78328 17.8448C5.2051 18.3573 7.85461 24.1355 7.56589 24.3022C7.27716 24.4689 3.56903 19.1759 3.36535 18.6635C3.09698 17.9883 3.1013 17.1149 3.33755 16.9785C3.5738 16.8421 4.33487 17.3 4.78328 17.8448Z" fill="#E81212"/>
<path d="M14.2493 34.2404C14.0164 33.6189 10.337 28.4352 10.0483 28.6019C9.75957 28.7686 12.4894 34.6265 12.8313 35.0591C13.2818 35.6291 14.0404 36.062 14.2766 35.9256C14.5129 35.7892 14.4969 34.9012 14.2493 34.2404Z" fill="#E81212"/>
<path d="M1.01983 21.011C1.64136 21.2439 6.82503 24.9232 6.65834 25.212C6.49164 25.5007 0.633777 22.7708 0.201188 22.4289C-0.368794 21.9784 -0.801756 21.2199 -0.665358 20.9836C-0.52896 20.7474 0.359099 20.7634 1.01983 21.011Z" fill="#E81212"/>
<path d="M17.4155 30.477C16.903 30.0552 11.1248 27.4057 10.9581 27.6944C10.7914 27.9831 16.0844 31.6913 16.5969 31.8949C17.272 32.1633 18.1454 32.159 18.2818 31.9227C18.4182 31.6865 17.9603 30.9254 17.4155 30.477Z" fill="#E81212"/>
<path d="M-0.656296 25.6347C-0.0015862 25.5256 6.32728 26.1202 6.32728 26.4536C6.32728 26.787 -0.110705 27.3518 -0.656296 27.272C-1.37516 27.1668 -2.12939 26.7264 -2.12939 26.4536C-2.12939 26.1808 -1.3523 25.7507 -0.656296 25.6347Z" fill="#E81212"/>
<path d="M18.2758 25.6347C17.6211 25.5256 11.2922 26.1202 11.2922 26.4536C11.2922 26.787 17.7302 27.3518 18.2758 27.272C18.9947 27.1668 19.7489 26.7264 19.7489 26.4536C19.7489 26.1808 18.9718 25.7507 18.2758 25.6347Z" fill="#E81212"/>
<path d="M0.20389 30.477C0.71635 30.0552 6.4946 27.4057 6.66129 27.6944C6.82799 27.9831 1.53494 31.6913 1.02253 31.8949C0.347408 32.1633 -0.526003 32.159 -0.662401 31.9227C-0.798799 31.6865 -0.340892 30.9254 0.20389 30.477Z" fill="#E81212"/>
<path d="M16.5994 21.011C15.9779 21.2439 10.7942 24.9232 10.9609 25.212C11.1276 25.5007 16.9855 22.7708 17.4181 22.4289C17.9881 21.9784 18.421 21.2199 18.2846 20.9836C18.1482 20.7474 17.2602 20.7634 16.5994 21.011Z" fill="#E81212"/>
<path d="M3.37011 34.2404C3.60301 33.6189 7.28236 28.4352 7.57109 28.6019C7.85981 28.7686 5.12996 34.6265 4.78804 35.0591C4.33755 35.6291 3.579 36.062 3.34275 35.9256C3.1065 35.7892 3.12253 34.9012 3.37011 34.2404Z" fill="#E81212"/>
<path d="M12.8362 17.8448C12.4144 18.3573 9.7649 24.1355 10.0536 24.3022C10.3423 24.4689 14.0505 19.1759 14.2542 18.6635C14.5225 17.9883 14.5182 17.1149 14.282 16.9785C14.0457 16.8421 13.2846 17.3 12.8362 17.8448Z" fill="#E81212"/>
<path d="M13.1416 12.8692C13.036 13.5638 10.8795 19.9739 10.6499 19.9124C10.4203 19.8509 11.8085 13.1144 12.014 12.5671C12.2849 11.846 12.7964 11.1502 12.9843 11.2006C13.1721 11.2509 13.2538 12.1308 13.1416 12.8692Z" fill="#FCCD05"/>
<path d="M5.6295 12.5681C5.88534 13.2225 7.22286 19.852 6.99326 19.9135C6.76367 19.975 4.59761 13.447 4.50197 12.8703C4.37595 12.1103 4.47107 11.252 4.65894 11.2017C4.8468 11.1514 5.35753 11.8725 5.6295 12.5681Z" fill="#FCCD05"/>
<path d="M13.1416 40.058C13.036 39.3634 10.8795 32.9533 10.6499 33.0148C10.4203 33.0763 11.8085 39.8128 12.014 40.3601C12.2849 41.0813 12.7964 41.777 12.9843 41.7267C13.1721 41.6763 13.2538 40.7964 13.1416 40.058Z" fill="#FCCD05"/>
<path d="M5.6295 40.3591C5.88534 39.7048 7.22286 33.0752 6.99326 33.0137C6.76367 32.9522 4.59761 39.4802 4.50197 40.057C4.37595 40.8169 4.47107 41.6752 4.65894 41.7255C4.8468 41.7759 5.35753 41.0547 5.6295 40.3591Z" fill="#FCCD05"/>
<path d="M-0.79041 15.927C-0.241682 16.3658 4.23141 21.4384 4.06334 21.6064C3.89526 21.7745 -1.24461 17.2041 -1.61582 16.7524C-2.10494 16.1573 -2.45169 15.3665 -2.31416 15.2289C-2.17664 15.0914 -1.37375 15.4606 -0.79041 15.927Z" fill="#FCCD05"/>
<path d="M-4.80722 22.2821C-4.11263 22.3877 2.29747 24.5442 2.23596 24.7737C2.17444 25.0033 -4.56202 23.6152 -5.10934 23.4096C-5.83049 23.1388 -6.52621 22.6273 -6.47587 22.4394C-6.42554 22.2516 -5.54562 22.1698 -4.80722 22.2821Z" fill="#FCCD05"/>
<path d="M22.7557 29.5214C22.1014 29.2656 15.4718 27.9281 15.4103 28.1576C15.3488 28.3872 21.8768 30.5533 22.4536 30.6489C23.2135 30.775 24.0718 30.6798 24.1221 30.492C24.1725 30.3041 23.4513 29.7934 22.7557 29.5214Z" fill="#FCCD05"/>
<path d="M19.2603 36.1776C18.8216 35.6289 13.749 31.1558 13.5809 31.3238C13.4128 31.4919 17.9832 36.6318 18.4349 37.003C19.0301 37.4921 19.8209 37.8389 19.9584 37.7013C20.0959 37.5638 19.7268 36.7609 19.2603 36.1776Z" fill="#FCCD05"/>
<path d="M-5.10837 29.5214C-4.45404 29.2656 2.1755 27.928 2.23702 28.1576C2.29854 28.3872 -4.22947 30.5533 -4.80625 30.6489C-5.56621 30.775 -6.42447 30.6798 -6.47481 30.492C-6.52515 30.3041 -5.80398 29.7934 -5.10837 29.5214Z" fill="#FCCD05"/>
<path d="M-1.61299 36.1776C-1.17424 35.6289 3.89835 31.1558 4.06642 31.3238C4.2345 31.4919 -0.335893 36.6318 -0.787582 37.003C-1.38271 37.4921 -2.17355 37.8389 -2.31108 37.7013C-2.4486 37.5638 -2.07942 36.7609 -1.61299 36.1776Z" fill="#FCCD05"/>
<path d="M18.4377 15.927C17.889 16.3658 13.4159 21.4384 13.584 21.6064C13.7521 21.7745 18.8919 17.2041 19.2632 16.7524C19.7523 16.1573 20.099 15.3665 19.9615 15.2289C19.824 15.0914 19.0211 15.4606 18.4377 15.927Z" fill="#FCCD05"/>
<path d="M22.4546 22.2821C21.76 22.3877 15.3499 24.5441 15.4114 24.7737C15.4729 25.0033 22.2094 23.6152 22.7567 23.4096C23.4778 23.1388 24.1736 22.6273 24.1232 22.4394C24.0729 22.2515 23.193 22.1698 22.4546 22.2821Z" fill="#FCCD05"/>
<path d="M-2.14614 39.2655C-1.74167 38.7771 2.80325 34.6901 2.93165 34.8185C3.06005 34.9469 -1.11278 39.5548 -1.51558 39.8961C-2.0463 40.3458 -2.73027 40.6906 -2.83534 40.5855C-2.9404 40.4804 -2.57613 39.7848 -2.14614 39.2655Z" fill="#E81212"/>
<path d="M1.31495 41.7529C1.57921 41.1764 4.91149 36.0524 5.06875 36.1432C5.226 36.234 2.38797 41.7649 2.08723 42.1988C1.691 42.7706 1.11955 43.2806 0.990873 43.2063C0.8622 43.132 1.03403 42.3658 1.31495 41.7529Z" fill="#E81212"/>
<path d="M19.9879 13.6756C19.5835 14.1641 15.0385 18.2511 14.9101 18.1227C14.7817 17.9943 18.9546 13.3864 19.3574 13.0451C19.8881 12.5953 20.5721 12.2506 20.6771 12.3557C20.7822 12.4608 20.4179 13.1564 19.9879 13.6756Z" fill="#E81212"/>
<path d="M16.5268 11.1883C16.2626 11.7648 12.9303 16.8888 12.773 16.798C12.6158 16.7072 15.4538 11.1763 15.7546 10.7424C16.1508 10.1706 16.7223 9.66062 16.8509 9.73491C16.9796 9.8092 16.8078 10.5754 16.5268 11.1883Z" fill="#E81212"/>
<path d="M5.73413 43.0848C5.84017 42.4595 7.73272 36.6477 7.90811 36.6947C8.08351 36.7417 6.77367 42.8186 6.59549 43.3156C6.36074 43.9705 5.94076 44.611 5.79725 44.5725C5.65373 44.5341 5.6214 43.7495 5.73413 43.0848Z" fill="#E81212"/>
<path d="M9.97531 43.5084C9.9159 42.877 10.2397 36.7733 10.4213 36.7733C10.6029 36.7733 10.9105 42.9822 10.8671 43.5084C10.8098 44.2017 10.5699 44.9291 10.4213 44.9291C10.2727 44.9291 10.0385 44.1796 9.97531 43.5084Z" fill="#E81212"/>
<path d="M12.1077 9.85637C12.0016 10.4816 10.1091 16.2935 9.93369 16.2465C9.75829 16.1995 11.0681 10.1226 11.2463 9.62557C11.4811 8.97073 11.901 8.3302 12.0446 8.36866C12.1881 8.40711 12.2204 9.19166 12.1077 9.85637Z" fill="#E81212"/>
<path d="M7.86649 9.4328C7.9259 10.0642 7.60206 16.1679 7.42048 16.1679C7.23889 16.1679 6.93127 9.95898 6.97474 9.4328C7.03201 8.73952 7.2719 8.01213 7.42048 8.01213C7.56905 8.01213 7.80334 8.76157 7.86649 9.4328Z" fill="#E81212"/>
<path d="M14.4681 42.4523C14.2473 41.8578 12.9803 35.8783 13.1557 35.8313C13.3311 35.7843 15.2353 41.702 15.3295 42.2215C15.4536 42.906 15.4101 43.6707 15.2666 43.7092C15.1231 43.7476 14.7028 43.0843 14.4681 42.4523Z" fill="#E81212"/>
<path d="M18.3526 40.6986C17.9855 40.1815 15.2141 34.7336 15.3714 34.6428C15.5286 34.5521 18.8995 39.7753 19.1249 40.2527C19.422 40.8818 19.5779 41.6316 19.4492 41.7059C19.3206 41.7802 18.743 41.2483 18.3526 40.6986Z" fill="#E81212"/>
<path d="M3.37334 10.4889C3.59414 11.0834 4.86108 17.0629 4.68569 17.1099C4.51029 17.1569 2.60617 11.2392 2.51197 10.7197C2.38785 10.0352 2.43131 9.27048 2.57482 9.23202C2.71834 9.19357 3.13861 9.85684 3.37334 10.4889Z" fill="#E81212"/>
<path d="M-0.511216 12.2426C-0.144063 12.7597 2.62731 18.2075 2.47006 18.2983C2.3128 18.3891 -1.05805 13.1659 -1.2835 12.6885C-1.58054 12.0594 -1.73649 11.3095 -1.60782 11.2352C-1.47914 11.161 -0.901527 11.6929 -0.511216 12.2426Z" fill="#E81212"/>
<path d="M21.7156 37.5376C21.2271 37.1331 17.1401 32.5882 17.2685 32.4598C17.3969 32.3314 22.0048 36.5042 22.3461 36.907C22.7959 37.4377 23.1406 38.1217 23.0355 38.2267C22.9305 38.3318 22.2349 37.9675 21.7156 37.5376Z" fill="#E81212"/>
<path d="M24.2029 34.0764C23.6264 33.8122 18.5024 30.4799 18.5932 30.3226C18.684 30.1654 24.2149 33.0034 24.6488 33.3041C25.2206 33.7004 25.7306 34.2718 25.6563 34.4005C25.582 34.5292 24.8158 34.3574 24.2029 34.0764Z" fill="#E81212"/>
<path d="M-3.87425 15.4036C-3.38577 15.8081 0.701179 20.353 0.572781 20.4814C0.444383 20.6098 -4.16349 16.437 -4.50482 16.0342C-4.95455 15.5035 -5.29927 14.8195 -5.19421 14.7144C-5.08914 14.6094 -4.39355 14.9737 -3.87425 15.4036Z" fill="#E81212"/>
<path d="M25.5351 29.6574C24.9099 29.5513 19.098 27.6588 19.145 27.4834C19.192 27.308 25.2689 28.6178 25.7659 28.796C26.4208 29.0308 27.0613 29.4507 27.0228 29.5943C26.9844 29.7378 26.1998 29.7701 25.5351 29.6574Z" fill="#E81212"/>
<path d="M25.9586 25.4163C25.3272 25.4757 19.2235 25.1518 19.2235 24.9702C19.2235 24.7887 25.4324 24.481 25.9586 24.5245C26.6519 24.5818 27.3793 24.8217 27.3793 24.9702C27.3793 25.1188 26.6298 25.3531 25.9586 25.4163Z" fill="#E81212"/>
<path d="M24.9027 20.9233C24.3082 21.1441 18.3287 22.4111 18.2817 22.2357C18.2347 22.0603 24.1524 20.1561 24.6719 20.062C25.3564 19.9378 26.1211 19.9813 26.1595 20.1248C26.198 20.2683 25.5347 20.6886 24.9027 20.9233Z" fill="#E81212"/>
<path d="M23.1489 17.0386C22.6318 17.4058 17.1839 20.1771 17.0931 20.0199C17.0023 19.8626 22.2256 16.4918 22.703 16.2663C23.332 15.9693 24.0819 15.8133 24.1562 15.942C24.2305 16.0707 23.6986 16.6483 23.1489 17.0386Z" fill="#E81212"/>
<path d="M-5.30697 35.9026C-4.78985 35.5354 0.657994 32.764 0.748785 32.9213C0.839576 33.0785 -4.38367 36.4494 -4.86109 36.6748C-5.49012 36.9719 -6.24001 37.1278 -6.3143 36.9992C-6.38859 36.8705 -5.8567 36.2929 -5.30697 35.9026Z" fill="#E81212"/>
<path d="M33.9893 1.55827C34.0561 1.9594 33.6918 5.83702 33.4875 5.83702C33.2833 5.83702 32.9372 1.89255 32.9861 1.55827C33.0505 1.11783 33.3204 0.65572 33.4875 0.65572C33.6547 0.65572 33.9182 1.13184 33.9893 1.55827Z" fill="#E81212"/>
<path d="M33.9893 13.1577C34.0561 12.7566 33.6918 8.87895 33.4875 8.87895C33.2833 8.87895 32.9372 12.8234 32.9861 13.1577C33.0505 13.5981 33.3204 14.0602 33.4875 14.0602C33.6547 14.0602 33.9182 13.5841 33.9893 13.1577Z" fill="#E81212"/>
<path d="M31.0224 2.08534C31.2809 2.39931 32.9042 5.93958 32.7273 6.04171C32.5504 6.14384 30.2785 2.90085 30.1537 2.58691C29.9893 2.17327 29.9919 1.63814 30.1367 1.55457C30.2814 1.471 30.7477 1.75155 31.0224 2.08534Z" fill="#E81212"/>
<path d="M36.8222 12.1307C36.6795 11.7499 34.4252 8.57397 34.2483 8.6761C34.0714 8.77823 35.7439 12.3673 35.9534 12.6323C36.2294 12.9815 36.6942 13.2468 36.8389 13.1632C36.9837 13.0797 36.9739 12.5356 36.8222 12.1307Z" fill="#E81212"/>
<path d="M28.7166 4.02522C29.0974 4.16791 32.2733 6.4222 32.1712 6.5991C32.0691 6.776 28.48 5.10345 28.215 4.89397C27.8658 4.61796 27.6005 4.1532 27.6841 4.00845C27.7676 3.8637 28.3117 3.87352 28.7166 4.02522Z" fill="#E81212"/>
<path d="M38.7621 9.82493C38.4481 9.56649 34.9078 7.94317 34.8057 8.12007C34.7036 8.29697 37.9466 10.5689 38.2605 10.6937C38.6741 10.8581 39.2093 10.8555 39.2928 10.7107C39.3764 10.566 39.0959 10.0997 38.7621 9.82493Z" fill="#E81212"/>
<path d="M27.6897 6.8581C28.0908 6.79128 31.9684 7.15557 31.9684 7.35983C31.9684 7.5641 28.0239 7.91015 27.6897 7.86125C27.2492 7.79683 26.7871 7.52697 26.7871 7.35983C26.7871 7.19269 27.2632 6.92914 27.6897 6.8581Z" fill="#E81212"/>
<path d="M39.2891 6.85811C38.888 6.79128 35.0103 7.15558 35.0103 7.35984C35.0103 7.56411 38.9548 7.91016 39.2891 7.86126C39.7295 7.79684 40.1917 7.52698 40.1917 7.35984C40.1917 7.1927 39.7155 6.92915 39.2891 6.85811Z" fill="#E81212"/>
<path d="M28.2167 9.82493C28.5307 9.56649 32.0709 7.94316 32.1731 8.12006C32.2752 8.29696 29.0322 10.5689 28.7183 10.6937C28.3046 10.8581 27.7695 10.8555 27.6859 10.7107C27.6023 10.566 27.8829 10.0997 28.2167 9.82493Z" fill="#E81212"/>
<path d="M38.2621 4.02521C37.8813 4.1679 34.7053 6.4222 34.8074 6.5991C34.9096 6.776 38.4986 5.10345 38.7636 4.89396C39.1129 4.61795 39.3781 4.15319 39.2946 4.00845C39.211 3.8637 38.6669 3.87352 38.2621 4.02521Z" fill="#E81212"/>
<path d="M30.1566 12.1307C30.2993 11.7499 32.5536 8.57397 32.7305 8.6761C32.9074 8.77823 31.2348 12.3673 31.0253 12.6323C30.7493 12.9815 30.2846 13.2468 30.1398 13.1632C29.9951 13.0797 30.0049 12.5356 30.1566 12.1307Z" fill="#E81212"/>
<path d="M35.9563 2.08534C35.6979 2.39932 34.0746 5.93958 34.2515 6.04171C34.4284 6.14385 36.7003 2.90086 36.8251 2.58691C36.9895 2.17327 36.9869 1.63814 36.8421 1.55458C36.6974 1.47101 36.2311 1.75156 35.9563 2.08534Z" fill="#E81212"/>
<path d="M36.1435 -0.963144C36.0788 -0.537577 34.7576 3.38982 34.6169 3.35212C34.4763 3.31443 35.3267 -0.812911 35.4527 -1.14825C35.6186 -1.59009 35.932 -2.01635 36.0471 -1.98551C36.1622 -1.95467 36.2123 -1.41555 36.1435 -0.963144Z" fill="#FCCD05"/>
<path d="M31.541 -1.14762C31.6977 -0.746715 32.5172 3.31512 32.3765 3.35281C32.2358 3.3905 30.9087 -0.609127 30.8501 -0.962514C30.7729 -1.42813 30.8312 -1.95398 30.9463 -1.98482C31.0614 -2.01566 31.3743 -1.57381 31.541 -1.14762Z" fill="#FCCD05"/>
<path d="M36.1434 15.6951C36.0787 15.2695 34.7575 11.3421 34.6168 11.3798C34.4761 11.4175 35.3266 15.5448 35.4526 15.8802C35.6185 16.322 35.9319 16.7483 36.047 16.7174C36.1621 16.6866 36.2122 16.1475 36.1434 15.6951Z" fill="#FCCD05"/>
<path d="M31.5408 15.8796C31.6976 15.4787 32.5171 11.4168 32.3764 11.3791C32.2357 11.3414 30.9086 15.3411 30.85 15.6945C30.7728 16.1601 30.8311 16.6859 30.9462 16.7168C31.0613 16.7476 31.3742 16.3058 31.5408 15.8796Z" fill="#FCCD05"/>
<path d="M27.6075 0.910334C27.9437 1.17915 30.6844 4.28707 30.5814 4.39004C30.4784 4.49302 27.3293 1.6928 27.1018 1.41605C26.8022 1.05143 26.5897 0.566887 26.674 0.482626C26.7582 0.398366 27.2501 0.624559 27.6075 0.910334Z" fill="#FCCD05"/>
<path d="M25.1465 4.80401C25.5721 4.86871 29.4995 6.18994 29.4618 6.33061C29.4241 6.47128 25.2967 5.62078 24.9614 5.49483C24.5196 5.32889 24.0933 5.0155 24.1241 4.90039C24.155 4.78529 24.6941 4.73522 25.1465 4.80401Z" fill="#FCCD05"/>
<path d="M42.034 9.23943C41.6331 9.08269 37.5713 8.26321 37.5336 8.40387C37.4959 8.54454 41.4955 9.87167 41.8489 9.93026C42.3145 10.0075 42.8404 9.94919 42.8712 9.83409C42.9021 9.71899 42.4602 9.40607 42.034 9.23943Z" fill="#FCCD05"/>
<path d="M39.8925 13.3176C39.6237 12.9814 36.5158 10.2408 36.4128 10.3438C36.3098 10.4467 39.11 13.5959 39.3868 13.8233C39.7514 14.123 40.2359 14.3354 40.3202 14.2512C40.4045 14.1669 40.1783 13.675 39.8925 13.3176Z" fill="#FCCD05"/>
<path d="M24.9621 9.23943C25.363 9.08268 29.4248 8.2632 29.4625 8.40387C29.5002 8.54454 25.5006 9.87166 25.1472 9.93026C24.6816 10.0075 24.1557 9.94919 24.1249 9.83409C24.094 9.71899 24.5359 9.40607 24.9621 9.23943Z" fill="#FCCD05"/>
<path d="M27.1036 13.3176C27.3724 12.9814 30.4803 10.2408 30.5833 10.3438C30.6863 10.4467 27.8861 13.5959 27.6093 13.8233C27.2447 14.123 26.7602 14.3354 26.6759 14.2512C26.5916 14.1669 26.8178 13.675 27.1036 13.3176Z" fill="#FCCD05"/>
<path d="M39.3884 0.910325C39.0522 1.17914 36.3116 4.28706 36.4146 4.39003C36.5176 4.49301 39.6667 1.69279 39.8941 1.41604C40.1938 1.05142 40.4063 0.566877 40.322 0.482617C40.2377 0.398356 39.7458 0.624549 39.3884 0.910325Z" fill="#FCCD05"/>
<path d="M41.8495 4.804C41.4239 4.86871 37.4965 6.18994 37.5342 6.33061C37.5719 6.47127 41.6992 5.62078 42.0346 5.49483C42.4764 5.32889 42.9027 5.01549 42.8718 4.90039C42.841 4.78529 42.3019 4.73522 41.8495 4.804Z" fill="#FCCD05"/>
<path d="M26.777 15.2096C27.0248 14.9103 29.8095 12.4062 29.8881 12.4849C29.9668 12.5636 27.4102 15.3868 27.1634 15.5959C26.8382 15.8714 26.4191 16.0826 26.3548 16.0183C26.2904 15.9539 26.5136 15.5277 26.777 15.2096Z" fill="#E81212"/>
<path d="M28.8976 16.7335C29.0595 16.3803 31.1011 13.2409 31.1975 13.2965C31.2938 13.3522 29.555 16.7409 29.3708 17.0067C29.128 17.357 28.7779 17.6695 28.699 17.624C28.6202 17.5785 28.7255 17.1091 28.8976 16.7335Z" fill="#E81212"/>
<path d="M40.338 -0.469062C40.0901 -0.169774 37.3055 2.33425 37.2269 2.25558C37.1482 2.17691 39.7048 -0.646275 39.9516 -0.8554C40.2768 -1.13095 40.6958 -1.34215 40.7602 -1.27778C40.8246 -1.21341 40.6014 -0.787226 40.338 -0.469062Z" fill="#E81212"/>
<path d="M38.2174 -1.99305C38.0555 -1.63982 36.0138 1.49959 35.9175 1.44397C35.8211 1.38834 37.56 -2.00036 37.7442 -2.26623C37.987 -2.61655 38.3371 -2.92902 38.416 -2.8835C38.4948 -2.83798 38.3895 -2.36856 38.2174 -1.99305Z" fill="#E81212"/>
<path d="M31.6052 17.5496C31.6702 17.1665 32.8297 13.6056 32.9372 13.6344C33.0447 13.6632 32.2421 17.3865 32.133 17.691C31.9892 18.0922 31.7318 18.4846 31.6439 18.4611C31.556 18.4375 31.5362 17.9568 31.6052 17.5496Z" fill="#E81212"/>
<path d="M34.2038 17.8091C34.1674 17.4222 34.3658 13.6826 34.477 13.6826C34.5883 13.6826 34.7768 17.4867 34.7501 17.8091C34.7151 18.2339 34.5681 18.6795 34.477 18.6795C34.386 18.6795 34.2425 18.2204 34.2038 17.8091Z" fill="#E81212"/>
<path d="M35.5101 -2.8091C35.4452 -2.426 34.2856 1.13486 34.1782 1.10607C34.0707 1.07727 34.8732 -2.646 34.9824 -2.95051C35.1262 -3.35172 35.3835 -3.74416 35.4715 -3.7206C35.5594 -3.69704 35.5792 -3.21636 35.5101 -2.8091Z" fill="#E81212"/>
<path d="M32.9116 -3.06861C32.948 -2.68175 32.7496 1.05788 32.6383 1.05788C32.5271 1.05788 32.3386 -2.74623 32.3652 -3.06861C32.4003 -3.49338 32.5473 -3.93905 32.6383 -3.93905C32.7293 -3.93905 32.8729 -3.47987 32.9116 -3.06861Z" fill="#E81212"/>
<path d="M36.9563 17.1621C36.821 16.7978 36.0448 13.1342 36.1522 13.1054C36.2597 13.0766 37.4263 16.7024 37.484 17.0206C37.5601 17.44 37.5335 17.9085 37.4455 17.9321C37.3576 17.9557 37.1001 17.5493 36.9563 17.1621Z" fill="#E81212"/>
<path d="M39.3364 16.0876C39.1114 15.7707 37.4134 12.4329 37.5098 12.3773C37.6061 12.3216 39.6714 15.5219 39.8095 15.8144C39.9915 16.1998 40.0871 16.6592 40.0082 16.7047C39.9294 16.7503 39.5755 16.4244 39.3364 16.0876Z" fill="#E81212"/>
<path d="M30.1587 -2.42158C30.294 -2.05732 31.0702 1.60624 30.9628 1.63504C30.8553 1.66383 29.6887 -1.96188 29.6309 -2.28017C29.5549 -2.69954 29.5815 -3.16806 29.6695 -3.19163C29.7574 -3.21519 30.0149 -2.80881 30.1587 -2.42158Z" fill="#E81212"/>
<path d="M27.7786 -1.34709C28.0036 -1.03026 29.7016 2.30757 29.6052 2.3632C29.5089 2.41882 27.4436 -0.781396 27.3055 -1.07391C27.1235 -1.45931 27.0279 -1.91875 27.1068 -1.96427C27.1856 -2.00979 27.5395 -1.6839 27.7786 -1.34709Z" fill="#E81212"/>
<path d="M41.3965 14.1508C41.0972 13.903 38.5932 11.1184 38.6719 11.0397C38.7505 10.9611 41.5737 13.5177 41.7829 13.7645C42.0584 14.0897 42.2696 14.5087 42.2052 14.5731C42.1409 14.6375 41.7147 14.4143 41.3965 14.1508Z" fill="#E81212"/>
<path d="M42.9205 12.0302C42.5672 11.8683 39.4278 9.82668 39.4834 9.73034C39.5391 9.63399 42.9278 11.3728 43.1936 11.5571C43.544 11.7998 43.8564 12.15 43.8109 12.2288C43.7654 12.3076 43.296 12.2024 42.9205 12.0302Z" fill="#E81212"/>
<path d="M25.718 0.58966C26.0173 0.837474 28.5213 3.6221 28.4426 3.70076C28.364 3.77943 25.5408 1.22279 25.3316 0.975999C25.0561 0.650834 24.8449 0.231771 24.9093 0.167401C24.9736 0.103031 25.3998 0.326216 25.718 0.58966Z" fill="#E81212"/>
<path d="M24.194 2.71025C24.5473 2.87215 27.6867 4.9138 27.6311 5.01015C27.5754 5.1065 24.1867 3.36767 23.9209 3.18341C23.5705 2.94064 23.2581 2.59052 23.3036 2.51169C23.3491 2.43285 23.8185 2.53813 24.194 2.71025Z" fill="#E81212"/>
<path d="M43.7369 9.32275C43.3538 9.25778 39.7929 8.09824 39.8217 7.99077C39.8505 7.88331 43.5738 8.68583 43.8783 8.795C44.2795 8.93883 44.6719 9.19614 44.6484 9.28407C44.6248 9.37201 44.1441 9.39181 43.7369 9.32275Z" fill="#E81212"/>
<path d="M43.9964 6.72427C43.6095 6.76067 39.8699 6.56225 39.8699 6.451C39.8699 6.33975 43.674 6.15127 43.9964 6.1779C44.4212 6.21299 44.8668 6.35997 44.8668 6.451C44.8668 6.54203 44.4076 6.68558 43.9964 6.72427Z" fill="#E81212"/>
<path d="M23.3781 5.41774C23.7612 5.48271 27.3221 6.64225 27.2933 6.74971C27.2645 6.85718 23.5412 6.05465 23.2367 5.94549C22.8355 5.80166 22.443 5.54434 22.4666 5.45641C22.4902 5.36848 22.9708 5.34867 23.3781 5.41774Z" fill="#E81212"/>
<path d="M23.1186 8.01622C23.5055 7.97982 27.2451 8.17824 27.2451 8.28949C27.2451 8.40074 23.441 8.58922 23.1186 8.56259C22.6938 8.5275 22.2482 8.38052 22.2482 8.28949C22.2482 8.19846 22.7073 8.05491 23.1186 8.01622Z" fill="#E81212"/>
<path d="M43.3495 3.9715C42.9853 4.10678 39.3217 4.88302 39.2929 4.77556C39.2641 4.66809 42.8898 3.50146 43.2081 3.44375C43.6275 3.3677 44.096 3.39433 44.1196 3.48226C44.1431 3.57019 43.7367 3.82768 43.3495 3.9715Z" fill="#E81212"/>
<path d="M42.275 1.59139C41.9582 1.81634 38.6204 3.51433 38.5647 3.41798C38.5091 3.32163 41.7093 1.25635 42.0019 1.11822C42.3873 0.936227 42.8467 0.84068 42.8922 0.919517C42.9377 0.998353 42.6118 1.35225 42.275 1.59139Z" fill="#E81212"/>
<path d="M23.7656 10.769C24.1299 10.6337 27.7934 9.85749 27.8222 9.96495C27.851 10.0724 24.2253 11.239 23.907 11.2968C23.4876 11.3728 23.0191 11.3462 22.9956 11.2583C22.972 11.1703 23.3784 10.9128 23.7656 10.769Z" fill="#E81212"/>
<path d="M24.8401 13.1491C25.1569 12.9242 28.4947 11.2262 28.5504 11.3225C28.606 11.4189 25.4058 13.4842 25.1133 13.6223C24.7279 13.8043 24.2684 13.8998 24.2229 13.821C24.1774 13.7421 24.5033 13.3882 24.8401 13.1491Z" fill="#E81212"/>
<path d="M35.8079 27.8291C35.8456 28.0554 35.6402 30.2425 35.525 30.2425C35.4097 30.2425 35.2146 28.0177 35.2421 27.8291C35.2785 27.5807 35.4307 27.3201 35.525 27.3201C35.6192 27.3201 35.7679 27.5886 35.8079 27.8291Z" fill="#E81212"/>
<path d="M35.8078 34.3716C35.8455 34.1453 35.64 31.9582 35.5248 31.9582C35.4096 31.9582 35.2144 34.183 35.242 34.3716C35.2784 34.62 35.4306 34.8806 35.5248 34.8806C35.6191 34.8806 35.7678 34.6121 35.8078 34.3716Z" fill="#E81212"/>
<path d="M34.1344 28.1264C34.2802 28.3035 35.1958 30.3003 35.096 30.3579C34.9962 30.4155 33.7148 28.5864 33.6444 28.4093C33.5516 28.176 33.5531 27.8742 33.6348 27.827C33.7164 27.7799 33.9794 27.9381 34.1344 28.1264Z" fill="#E81212"/>
<path d="M37.4056 33.7923C37.3251 33.5776 36.0536 31.7862 35.9538 31.8438C35.8541 31.9014 36.7974 33.9258 36.9156 34.0752C37.0713 34.2722 37.3334 34.4218 37.4151 34.3747C37.4967 34.3276 37.4912 34.0207 37.4056 33.7923Z" fill="#E81212"/>
<path d="M32.8339 29.2206C33.0486 29.301 34.84 30.5725 34.7824 30.6723C34.7248 30.7721 32.7004 29.8287 32.5509 29.7106C32.354 29.5549 32.2044 29.2927 32.2515 29.2111C32.2986 29.1295 32.6055 29.135 32.8339 29.2206Z" fill="#E81212"/>
<path d="M38.4999 32.4918C38.3228 32.346 36.3259 31.4304 36.2683 31.5302C36.2107 31.63 38.0399 32.9114 38.2169 32.9818C38.4503 33.0745 38.7521 33.073 38.7992 32.9914C38.8464 32.9098 38.6881 32.6468 38.4999 32.4918Z" fill="#E81212"/>
<path d="M32.2547 30.8184C32.4809 30.7807 34.668 30.9862 34.668 31.1014C34.668 31.2166 32.4432 31.4118 32.2547 31.3842C32.0063 31.3479 31.7456 31.1957 31.7456 31.1014C31.7456 31.0071 32.0142 30.8585 32.2547 30.8184Z" fill="#E81212"/>
<path d="M38.7971 30.8184C38.5708 30.7807 36.3837 30.9862 36.3837 31.1014C36.3837 31.2166 38.6085 31.4118 38.7971 31.3842C39.0455 31.3479 39.3062 31.1957 39.3062 31.1014C39.3062 31.0071 39.0376 30.8585 38.7971 30.8184Z" fill="#E81212"/>
<path d="M32.552 32.4918C32.7291 32.346 34.7259 31.4304 34.7836 31.5302C34.8412 31.63 33.012 32.9114 32.8349 32.9818C32.6016 33.0745 32.2998 33.073 32.2527 32.9914C32.2055 32.9098 32.3638 32.6468 32.552 32.4918Z" fill="#E81212"/>
<path d="M38.2179 29.2206C38.0031 29.301 36.2118 30.5725 36.2694 30.6723C36.327 30.7721 38.3513 29.8287 38.5008 29.7106C38.6978 29.5549 38.8474 29.2927 38.8003 29.2111C38.7531 29.1295 38.4462 29.135 38.2179 29.2206Z" fill="#E81212"/>
<path d="M33.6462 33.7923C33.7266 33.5776 34.9981 31.7862 35.0979 31.8438C35.1977 31.9014 34.2543 33.9258 34.1362 34.0752C33.9805 34.2722 33.7183 34.4218 33.6367 34.3747C33.5551 34.3276 33.5606 34.0207 33.6462 33.7923Z" fill="#E81212"/>
<path d="M36.9174 28.1264C36.7716 28.3035 35.856 30.3003 35.9558 30.3579C36.0555 30.4155 37.337 28.5864 37.4074 28.4093C37.5001 28.176 37.4986 27.8742 37.417 27.827C37.3353 27.7799 37.0723 27.9382 36.9174 28.1264Z" fill="#E81212"/>
<path d="M37.023 26.407C36.9865 26.647 36.2413 28.8622 36.162 28.8409C36.0826 28.8197 36.5624 26.4917 36.6334 26.3026C36.727 26.0534 36.9038 25.8129 36.9687 25.8303C37.0336 25.8477 37.0618 26.1518 37.023 26.407Z" fill="#FCCD05"/>
<path d="M34.427 26.3029C34.5154 26.529 34.9776 28.82 34.8983 28.8413C34.8189 28.8626 34.0704 26.6066 34.0374 26.4073C33.9938 26.1447 34.0267 25.8481 34.0916 25.8307C34.1565 25.8133 34.333 26.0625 34.427 26.3029Z" fill="#FCCD05"/>
<path d="M37.023 35.8028C36.9865 35.5627 36.2413 33.3475 36.162 33.3688C36.0826 33.3901 36.5624 35.718 36.6334 35.9072C36.727 36.1564 36.9038 36.3968 36.9687 36.3794C37.0336 36.362 37.0618 36.0579 37.023 35.8028Z" fill="#FCCD05"/>
<path d="M34.427 35.9068C34.5154 35.6807 34.9776 33.3897 34.8983 33.3684C34.8189 33.3471 34.0704 35.6031 34.0374 35.8024C33.9938 36.065 34.0267 36.3616 34.0916 36.379C34.1565 36.3964 34.333 36.1472 34.427 35.9068Z" fill="#FCCD05"/>
<path d="M32.2083 27.4637C32.3979 27.6153 33.9437 29.3683 33.8857 29.4263C33.8276 29.4844 32.0514 27.905 31.9231 27.7489C31.7541 27.5432 31.6342 27.27 31.6817 27.2224C31.7293 27.1749 32.0067 27.3025 32.2083 27.4637Z" fill="#FCCD05"/>
<path d="M30.8202 29.6598C31.0603 29.6963 33.2754 30.4415 33.2542 30.5209C33.2329 30.6002 30.905 30.1205 30.7158 30.0495C30.4666 29.9559 30.2262 29.7791 30.2436 29.7142C30.261 29.6493 30.5651 29.621 30.8202 29.6598Z" fill="#FCCD05"/>
<path d="M40.3452 32.1616C40.1191 32.0731 37.8281 31.6109 37.8068 31.6903C37.7856 31.7696 40.0415 32.5182 40.2408 32.5512C40.5035 32.5948 40.8 32.5619 40.8174 32.497C40.8348 32.432 40.5856 32.2555 40.3452 32.1616Z" fill="#FCCD05"/>
<path d="M39.1374 34.4618C38.9858 34.2721 37.2328 32.7263 37.1747 32.7844C37.1167 32.8425 38.6961 34.6187 38.8522 34.747C39.0578 34.916 39.3311 35.0359 39.3786 34.9883C39.4262 34.9408 39.2986 34.6634 39.1374 34.4618Z" fill="#FCCD05"/>
<path d="M30.7163 32.1616C30.9424 32.0731 33.2334 31.6109 33.2547 31.6903C33.2759 31.7696 31.02 32.5182 30.8207 32.5512C30.5581 32.5948 30.2615 32.5619 30.2441 32.497C30.2267 32.432 30.4759 32.2555 30.7163 32.1616Z" fill="#FCCD05"/>
<path d="M31.9241 34.4618C32.0757 34.2721 33.8287 32.7264 33.8868 32.7844C33.9449 32.8425 32.3655 34.6187 32.2094 34.747C32.0037 34.916 31.7304 35.0359 31.6829 34.9883C31.6353 34.9408 31.7629 34.6634 31.9241 34.4618Z" fill="#FCCD05"/>
<path d="M38.8532 27.4637C38.6636 27.6153 37.1178 29.3682 37.1759 29.4263C37.2339 29.4844 39.0102 27.905 39.1384 27.7489C39.3075 27.5432 39.4273 27.2699 39.3798 27.2224C39.3322 27.1749 39.0548 27.3025 38.8532 27.4637Z" fill="#FCCD05"/>
<path d="M40.2414 29.6598C40.0014 29.6963 37.7862 30.4415 37.8075 30.5209C37.8287 30.6002 40.1567 30.1205 40.3458 30.0495C40.595 29.9559 40.8354 29.7791 40.8181 29.7142C40.8007 29.6493 40.4966 29.621 40.2414 29.6598Z" fill="#FCCD05"/>
<path d="M31.7402 35.5289C31.8799 35.3601 33.4506 33.9477 33.4949 33.9921C33.5393 34.0365 32.0973 35.6289 31.9581 35.7468C31.7747 35.9022 31.5383 36.0214 31.502 35.9851C31.4657 35.9487 31.5916 35.7084 31.7402 35.5289Z" fill="#E81212"/>
<path d="M32.9362 36.3885C33.0275 36.1893 34.1791 34.4185 34.2334 34.4499C34.2878 34.4813 33.307 36.3926 33.2031 36.5426C33.0662 36.7402 32.8687 36.9164 32.8242 36.8907C32.7798 36.8651 32.8391 36.6003 32.9362 36.3885Z" fill="#E81212"/>
<path d="M39.389 26.6856C39.2492 26.8545 37.6786 28.2668 37.6342 28.2224C37.5898 28.1781 39.0319 26.5857 39.1711 26.4677C39.3545 26.3123 39.5908 26.1932 39.6271 26.2295C39.6635 26.2658 39.5376 26.5062 39.389 26.6856Z" fill="#E81212"/>
<path d="M38.1929 25.8261C38.1016 26.0253 36.9501 27.796 36.8957 27.7646C36.8414 27.7333 37.8221 25.8219 37.9261 25.672C38.063 25.4744 38.2605 25.2981 38.3049 25.3238C38.3494 25.3495 38.29 25.6143 38.1929 25.8261Z" fill="#E81212"/>
<path d="M34.4633 36.8487C34.4999 36.6327 35.1539 34.6242 35.2145 34.6405C35.2752 34.6567 34.8225 36.7568 34.7609 36.9285C34.6798 37.1548 34.5347 37.3762 34.4851 37.3629C34.4355 37.3496 34.4243 37.0785 34.4633 36.8487Z" fill="#E81212"/>
<path d="M35.9289 36.9951C35.9084 36.7769 36.0203 34.6676 36.0831 34.6676C36.1458 34.6676 36.2521 36.8133 36.2371 36.9951C36.2173 37.2347 36.1344 37.4861 36.0831 37.4861C36.0317 37.4861 35.9507 37.2271 35.9289 36.9951Z" fill="#E81212"/>
<path d="M36.6658 25.3658C36.6291 25.5819 35.9751 27.5903 35.9145 27.5741C35.8539 27.5578 36.3065 25.4578 36.3681 25.286C36.4492 25.0597 36.5944 24.8384 36.6439 24.8517C36.6935 24.865 36.7047 25.1361 36.6658 25.3658Z" fill="#E81212"/>
<path d="M35.2001 25.2194C35.2206 25.4376 35.1087 27.5469 35.046 27.5469C34.9832 27.5469 34.8769 25.4012 34.8919 25.2194C34.9117 24.9798 34.9946 24.7285 35.046 24.7285C35.0973 24.7285 35.1783 24.9875 35.2001 25.2194Z" fill="#E81212"/>
<path d="M37.4813 36.6302C37.405 36.4247 36.9672 34.3584 37.0278 34.3421C37.0884 34.3259 37.7465 36.3709 37.779 36.5504C37.8219 36.787 37.8069 37.0512 37.7573 37.0645C37.7077 37.0778 37.5625 36.8486 37.4813 36.6302Z" fill="#E81212"/>
<path d="M38.8238 36.0241C38.6969 35.8454 37.7392 33.9628 37.7935 33.9314C37.8479 33.9 39.0128 35.7051 39.0907 35.87C39.1933 36.0874 39.2472 36.3466 39.2028 36.3722C39.1583 36.3979 38.9587 36.2141 38.8238 36.0241Z" fill="#E81212"/>
<path d="M33.6477 25.5844C33.724 25.7898 34.1618 27.8562 34.1012 27.8724C34.0406 27.8887 33.3826 25.8437 33.35 25.6641C33.3071 25.4276 33.3221 25.1633 33.3717 25.15C33.4213 25.1368 33.5666 25.366 33.6477 25.5844Z" fill="#E81212"/>
<path d="M32.3052 26.1904C32.4321 26.3691 33.3898 28.2518 33.3355 28.2831C33.2811 28.3145 32.1163 26.5095 32.0383 26.3445C31.9357 26.1271 31.8818 25.868 31.9263 25.8423C31.9707 25.8166 32.1703 26.0005 32.3052 26.1904Z" fill="#E81212"/>
<path d="M39.986 34.9317C39.8172 34.792 38.4049 33.2213 38.4493 33.177C38.4936 33.1326 40.086 34.5746 40.204 34.7138C40.3594 34.8972 40.4785 35.1336 40.4422 35.1699C40.4059 35.2062 40.1655 35.0803 39.986 34.9317Z" fill="#E81212"/>
<path d="M40.8456 33.7357C40.6463 33.6443 38.8756 32.4928 38.907 32.4384C38.9383 32.3841 40.8497 33.3648 40.9996 33.4688C41.1972 33.6057 41.3735 33.8032 41.3478 33.8477C41.3221 33.8921 41.0574 33.8327 40.8456 33.7357Z" fill="#E81212"/>
<path d="M31.1427 27.2828C31.3115 27.4226 32.7239 28.9932 32.6795 29.0376C32.6352 29.0819 31.0428 27.6399 30.9248 27.5007C30.7694 27.3173 30.6503 27.0809 30.6866 27.0446C30.7229 27.0083 30.9633 27.1342 31.1427 27.2828Z" fill="#E81212"/>
<path d="M30.2832 28.4789C30.4825 28.5702 32.2532 29.7218 32.2218 29.7761C32.1904 29.8305 30.2791 28.8497 30.1291 28.7458C29.9316 28.6088 29.7553 28.4114 29.781 28.3669C29.8067 28.3224 30.0714 28.3818 30.2832 28.4789Z" fill="#E81212"/>
<path d="M41.3059 32.2085C41.0898 32.1719 39.0814 31.5179 39.0976 31.4573C39.1138 31.3966 41.2139 31.8493 41.3856 31.9109C41.6119 31.992 41.8333 32.1371 41.82 32.1867C41.8067 32.2363 41.5356 32.2475 41.3059 32.2085Z" fill="#E81212"/>
<path d="M41.4522 30.7429C41.234 30.7634 39.1247 30.6515 39.1247 30.5888C39.1247 30.526 41.2703 30.4197 41.4522 30.4347C41.6917 30.4545 41.9431 30.5374 41.9431 30.5888C41.9431 30.6401 41.6841 30.7211 41.4522 30.7429Z" fill="#E81212"/>
<path d="M29.8229 30.006C30.039 30.0426 32.0474 30.6967 32.0312 30.7573C32.0149 30.8179 29.9149 30.3652 29.7432 30.3037C29.5169 30.2225 29.2955 30.0774 29.3088 30.0278C29.3221 29.9782 29.5932 29.967 29.8229 30.006Z" fill="#E81212"/>
<path d="M29.6766 31.4716C29.8948 31.4511 32.0041 31.563 32.0041 31.6258C32.0041 31.6885 29.8585 31.7948 29.6766 31.7798C29.437 31.76 29.1857 31.6771 29.1857 31.6258C29.1857 31.5744 29.4447 31.4934 29.6766 31.4716Z" fill="#E81212"/>
<path d="M41.0872 29.1903C40.8818 29.2666 38.8154 29.7044 38.7992 29.6438C38.7829 29.5832 40.8279 28.9252 41.0075 28.8926C41.244 28.8497 41.5083 28.8647 41.5216 28.9143C41.5349 28.9639 41.3056 29.1092 41.0872 29.1903Z" fill="#E81212"/>
<path d="M40.4812 27.8478C40.3025 27.9747 38.4199 28.9324 38.3885 28.8781C38.3571 28.8237 40.1621 27.6588 40.3271 27.5809C40.5445 27.4783 40.8037 27.4244 40.8293 27.4689C40.855 27.5133 40.6712 27.7129 40.4812 27.8478Z" fill="#E81212"/>
<path d="M30.0416 33.0243C30.247 32.948 32.3134 32.5102 32.3296 32.5708C32.3459 32.6314 30.3008 33.2894 30.1213 33.3219C29.8848 33.3648 29.6205 33.3498 29.6072 33.3002C29.5939 33.2506 29.8231 33.1054 30.0416 33.0243Z" fill="#E81212"/>
<path d="M30.6476 34.3667C30.8263 34.2399 32.7089 33.2821 32.7403 33.3365C32.7717 33.3908 30.9666 34.5557 30.8017 34.6336C30.5843 34.7363 30.3251 34.7902 30.2995 34.7457C30.2738 34.7012 30.4576 34.5016 30.6476 34.3667Z" fill="#E81212"/>
<path d="M14.9082 2.26086C14.9459 2.0346 14.7404 -0.152499 14.6252 -0.152499C14.51 -0.152499 14.3148 2.07231 14.3424 2.26086C14.3787 2.50928 14.5309 2.76992 14.6252 2.76992C14.7194 2.76992 14.8681 2.50138 14.9082 2.26086Z" fill="#E81212"/>
<path d="M16.5061 1.68162C16.4256 1.46684 15.1541 -0.324516 15.0543 -0.26691C14.9545 -0.209304 15.8979 1.81503 16.0161 1.96453C16.1717 2.1615 16.4339 2.31112 16.5155 2.26398C16.5972 2.21685 16.5916 1.90996 16.5061 1.68162Z" fill="#E81212"/>
<path d="M17.6001 0.381072C17.423 0.235303 15.4262 -0.680304 15.3685 -0.580528C15.3109 -0.480752 17.1401 0.80069 17.3172 0.871075C17.5505 0.963819 17.8523 0.962325 17.8994 0.880684C17.9466 0.799042 17.7883 0.536034 17.6001 0.381072Z" fill="#E81212"/>
<path d="M11.6524 0.381071C11.8295 0.235302 13.8263 -0.680305 13.8839 -0.580529C13.9415 -0.480752 12.1123 0.800689 11.9353 0.871074C11.702 0.963818 11.4001 0.962324 11.353 0.880683C11.3059 0.799041 11.4641 0.536034 11.6524 0.381071Z" fill="#E81212"/>
<path d="M12.7465 1.68162C12.827 1.46683 14.0985 -0.324521 14.1983 -0.266915C14.298 -0.209309 13.3547 1.81503 13.2365 1.96452C13.0808 2.16149 12.8187 2.31111 12.737 2.26398C12.6554 2.21684 12.6609 1.90995 12.7465 1.68162Z" fill="#E81212"/>
<path d="M16.1231 3.69203C16.0866 3.45199 15.3414 1.23681 15.2621 1.25807C15.1827 1.27933 15.6625 3.60729 15.7335 3.79643C15.8271 4.04565 16.0039 4.28607 16.0688 4.26867C16.1337 4.25128 16.1619 3.9472 16.1231 3.69203Z" fill="#FCCD05"/>
<path d="M13.5271 3.79608C13.6155 3.56995 14.0777 1.27895 13.9984 1.25769C13.919 1.23643 13.1705 3.49235 13.1375 3.69167C13.0939 3.95429 13.1268 4.25089 13.1917 4.26828C13.2566 4.28568 13.4331 4.03646 13.5271 3.79608Z" fill="#FCCD05"/>
<path d="M19.4456 0.0508261C19.2195 -0.0375844 16.9284 -0.499798 16.9072 -0.420456C16.8859 -0.341115 19.1419 0.407425 19.3412 0.440475C19.6038 0.484025 19.9004 0.451152 19.9178 0.386231C19.9352 0.32131 19.686 0.144813 19.4456 0.0508261Z" fill="#FCCD05"/>
<path d="M18.2377 2.35104C18.0861 2.16142 16.3332 0.615622 16.2751 0.673705C16.217 0.731787 17.7964 2.508 17.9525 2.63629C18.1582 2.80531 18.4315 2.92514 18.479 2.87762C18.5265 2.83009 18.3989 2.55263 18.2377 2.35104Z" fill="#FCCD05"/>
<path d="M9.81651 0.050828C10.0426 -0.0375825 12.3336 -0.499796 12.3549 -0.420455C12.3762 -0.341113 10.1202 0.407427 9.92091 0.440477C9.65829 0.484027 9.36169 0.451154 9.3443 0.386233C9.3269 0.321312 9.57612 0.144815 9.81651 0.050828Z" fill="#FCCD05"/>
<path d="M11.0243 2.35104C11.176 2.16142 12.9289 0.615624 12.987 0.673707C13.0451 0.731789 11.4657 2.508 11.3096 2.63629C11.1039 2.80531 10.8306 2.92514 10.7831 2.87762C10.7356 2.83009 10.8631 2.55263 11.0243 2.35104Z" fill="#FCCD05"/>
<path d="M10.8403 3.41817C10.98 3.24936 12.5507 1.83701 12.595 1.88138C12.6394 1.92575 11.1974 3.51812 11.0582 3.63607C10.8748 3.79149 10.6384 3.91062 10.6021 3.87431C10.5658 3.838 10.6917 3.59762 10.8403 3.41817Z" fill="#E81212"/>
<path d="M12.0363 4.27775C12.1276 4.07852 13.2792 2.30778 13.3335 2.33916C13.3879 2.37053 12.4071 4.28187 12.3032 4.43183C12.1663 4.62942 11.9688 4.80567 11.9243 4.77999C11.8799 4.75432 11.9392 4.48955 12.0363 4.27775Z" fill="#E81212"/>
<path d="M13.5635 4.73802C13.6001 4.52194 14.2542 2.5135 14.3148 2.52974C14.3754 2.54598 13.9227 4.64603 13.8612 4.81778C13.78 5.04408 13.6349 5.26543 13.5853 5.25214C13.5357 5.23885 13.5245 4.96773 13.5635 4.73802Z" fill="#E81212"/>
<path d="M15.029 4.8844C15.0085 4.6662 15.1204 2.55692 15.1832 2.55692C15.2459 2.55692 15.3522 4.70256 15.3372 4.8844C15.3174 5.12398 15.2345 5.37535 15.1832 5.37535C15.1318 5.37535 15.0508 5.11636 15.029 4.8844Z" fill="#E81212"/>
<path d="M16.5816 4.51945C16.5053 4.314 16.0674 2.24763 16.1281 2.23139C16.1887 2.21514 16.8467 4.26016 16.8792 4.43969C16.9221 4.67623 16.9071 4.94049 16.8575 4.95378C16.8079 4.96707 16.6627 4.73786 16.5816 4.51945Z" fill="#E81212"/>
<path d="M17.924 3.9134C17.7971 3.73469 16.8394 1.85205 16.8938 1.82067C16.9481 1.7893 18.113 3.59433 18.1909 3.75931C18.2936 3.97669 18.3474 4.23583 18.303 4.26151C18.2585 4.28718 18.0589 4.10337 17.924 3.9134Z" fill="#E81212"/>
<path d="M19.0863 2.82101C18.9175 2.68123 17.5051 1.11062 17.5495 1.06625C17.5938 1.02187 19.1862 2.4639 19.3042 2.6031C19.4596 2.78651 19.5787 3.02287 19.5424 3.05918C19.5061 3.09548 19.2657 2.9696 19.0863 2.82101Z" fill="#E81212"/>
<path d="M19.9458 1.62493C19.7465 1.53361 17.9758 0.382051 18.0072 0.327707C18.0386 0.273364 19.9499 1.25412 20.0999 1.35805C20.2975 1.49498 20.4737 1.69246 20.448 1.73692C20.4223 1.78139 20.1576 1.72201 19.9458 1.62493Z" fill="#E81212"/>
<path d="M20.4062 0.0978145C20.1901 0.0611696 18.1817 -0.592849 18.1979 -0.653462C18.2142 -0.714074 20.3142 -0.261426 20.486 -0.199853C20.7123 -0.118729 20.9336 0.0264065 20.9203 0.0760022C20.907 0.125598 20.6359 0.136771 20.4062 0.0978145Z" fill="#E81212"/>
<path d="M9.14189 0.913555C9.34735 0.83725 11.4137 0.399426 11.43 0.460039C11.4462 0.520651 9.40118 1.17867 9.22165 1.21122C8.98511 1.25411 8.72085 1.2391 8.70756 1.1895C8.69427 1.13991 8.92348 0.994672 9.14189 0.913555Z" fill="#E81212"/>
<path d="M9.74791 2.25601C9.92662 2.12913 11.8093 1.17141 11.8406 1.22576C11.872 1.2801 10.067 2.44499 9.902 2.52289C9.68462 2.62555 9.42548 2.67944 9.3998 2.63497C9.37413 2.5905 9.55794 2.39089 9.74791 2.25601Z" fill="#E81212"/>
</g>
<defs>
<clipPath id="clip0_2702_14597">
<rect width="40" height="40" rx="20" fill="white"/>
</clipPath>
</defs>
</svg>
