<svg width="24" height="24" viewBox="0 0 24 24" fill="none" xmlns="http://www.w3.org/2000/svg">
<path d="M19.9283 16.7561L19.8484 16.513C19.6609 15.954 19.0429 15.3706 18.4735 15.2143L16.3713 14.6395C15.8019 14.485 14.9895 14.6934 14.5712 15.1118L13.8108 15.8723C11.0471 15.124 8.87891 12.9554 8.13242 10.1912L8.8928 9.43068C9.30943 9.01397 9.51775 8.20138 9.36326 7.63016L8.79031 5.5275C8.63582 4.95799 8.04903 4.33987 7.49008 4.15235L7.25049 4.07246C6.68976 3.88494 5.88949 4.07418 5.47286 4.49267L4.33406 5.63167C4.13097 5.83308 4.00075 6.41303 4.00075 6.41303C3.96253 10.028 5.37914 13.5093 7.93449 16.0668C10.4829 18.6157 13.9514 20.0308 17.5535 19.9995C17.5726 19.9995 18.168 19.8728 18.3711 19.6696L19.5099 18.5306C19.9266 18.1156 20.114 17.3152 19.9283 16.7561Z" stroke="#443E3E"/>
</svg>
