<svg width="25" height="25" viewBox="0 0 25 25" fill="none" xmlns="http://www.w3.org/2000/svg">
<path d="M10.8731 3.7196H10.8431L10.8398 3.7196C10.5616 3.71959 10.4032 3.71959 10.2664 3.72556C7.01774 3.86741 4.41634 6.46881 4.2745 9.71749C4.26853 9.85428 4.26853 10.0127 4.26853 10.2909L4.26853 10.2941V10.3242L4.26853 10.3274C4.26853 10.6056 4.26853 10.7641 4.2745 10.9008C4.41634 14.1495 7.01774 16.7509 10.2664 16.8928C10.4032 16.8987 10.5617 16.8987 10.84 16.8987H10.8431H10.8731H10.8762C11.1545 16.8987 11.313 16.8987 11.4498 16.8928C14.6985 16.7509 17.2999 14.1495 17.4417 10.9008C17.4477 10.764 17.4477 10.6056 17.4477 10.3272V10.3242V10.2941V10.2911C17.4477 10.0128 17.4477 9.85431 17.4417 9.7175C17.2999 6.46881 14.6985 3.86741 11.4498 3.72556C11.313 3.71959 11.1546 3.71959 10.8764 3.7196L10.8731 3.7196ZM10.314 4.81525C10.4239 4.81045 10.5569 4.81032 10.8581 4.81032C11.1593 4.81032 11.2923 4.81045 11.4022 4.81525C14.0859 4.93242 16.2348 7.08139 16.352 9.76507C16.3568 9.87501 16.357 10.008 16.357 10.3092C16.357 10.6103 16.3568 10.7433 16.352 10.8533C16.2348 13.5369 14.0859 15.6859 11.4022 15.8031C11.2923 15.8079 11.1593 15.808 10.8581 15.808C10.5569 15.808 10.4239 15.8079 10.314 15.8031C7.63033 15.6859 5.48136 13.5369 5.36419 10.8533C5.35939 10.7433 5.35926 10.6103 5.35926 10.3092C5.35926 10.008 5.35939 9.87501 5.36419 9.76507C5.48136 7.08139 7.63033 4.93242 10.314 4.81525Z" fill="#443E3E" stroke="#443E3E" stroke-width="0.2"/>
<path d="M15.8275 15.5367C15.602 15.3077 15.3596 15.1327 15.147 15.0369C15.041 14.9891 14.9374 14.9587 14.8441 14.9543C14.7508 14.9499 14.6568 14.9714 14.588 15.0412C14.5193 15.111 14.4981 15.2066 14.5024 15.3014C14.5068 15.3962 14.5367 15.5013 14.5837 15.609C14.6781 15.825 14.8503 16.0713 15.0758 16.3003L19.1565 20.4456C19.382 20.6747 19.6244 20.8496 19.837 20.9455C19.943 20.9933 20.0466 21.0237 20.1399 21.0281C20.2332 21.0325 20.3273 21.0109 20.396 20.9411C20.4647 20.8713 20.4859 20.7758 20.4816 20.681C20.4772 20.5862 20.4473 20.481 20.4003 20.3733C20.3059 20.1573 20.1337 19.9111 19.9082 19.682L15.8275 15.5367Z" fill="#443E3E" stroke="#443E3E" stroke-width="0.2" stroke-linecap="round" stroke-linejoin="round"/>
</svg>
