<svg width="50" height="50" viewBox="0 0 50 50" fill="none" xmlns="http://www.w3.org/2000/svg">
<g clip-path="url(#clip0_14_1617)">
<rect width="50" height="50" fill="#FBE0E0"/>
<path d="M24.1522 14.3876C20.2522 14.7814 17.1209 17.7579 16.535 21.6298C16.4975 21.8829 16.4646 22.1173 16.4646 22.1454C16.4646 22.1782 16.3053 22.2064 16.0287 22.2204C14.7396 22.2907 13.61 23.1532 13.1459 24.4235L13.0193 24.7657L13.0053 26.3689C12.9865 28.2017 13.0006 28.2814 13.3428 28.9845C13.7928 29.8985 14.6271 30.5267 15.6443 30.7189C16.474 30.8735 17.3412 30.8454 17.66 30.6485C17.9787 30.4517 17.9646 30.6298 17.9646 26.561C17.9646 22.2157 17.9928 21.8079 18.3209 20.7814C19.0662 18.461 20.9928 16.6704 23.3506 16.0985C26.224 15.4001 29.1725 16.5673 30.8506 19.0657C31.1084 19.4454 31.5162 20.2985 31.6709 20.7814C31.999 21.8079 32.0272 22.2157 32.0272 26.5704C32.0272 30.7423 32.0037 30.4704 32.4068 30.686C32.6084 30.7939 32.6365 30.7985 33.4803 30.7751C34.2537 30.7564 34.385 30.7423 34.7225 30.6345C35.2475 30.461 35.6506 30.2126 36.0631 29.8048C36.349 29.5189 36.4615 29.3642 36.6397 29.0079C36.9959 28.2814 37.0053 28.2064 36.9865 26.3689L36.9725 24.7657L36.8459 24.4235C36.3865 23.1579 35.2475 22.2907 33.9631 22.2204C33.6865 22.2064 33.5272 22.1782 33.5272 22.1454C33.5272 21.9626 33.3678 21.086 33.26 20.6923C32.2006 16.661 28.31 13.9704 24.1522 14.3876Z" fill="url(#paint0_linear_14_1617)"/>
<path d="M16.1553 31.7734C16.2631 32.4437 16.7131 33.4187 17.2006 34.0234C18.2037 35.2703 19.6803 35.9453 21.4099 35.9453H21.7849V35.5047V35.0687L21.1756 35.0406C20.2334 34.9937 19.5912 34.7969 18.8787 34.3281C17.9881 33.7469 17.3693 32.8703 17.0787 31.7969L17.0318 31.6094L16.5771 31.6L16.1271 31.5953L16.1553 31.7734Z" fill="url(#paint1_linear_14_1617)"/>
<path d="M23.585 34.0422C23.1443 34.2016 22.8115 34.5297 22.6475 34.9562C22.5678 35.1625 22.5537 35.2891 22.5678 35.5703C22.6053 36.1656 22.9147 36.625 23.449 36.8781L23.7068 37H24.9959H26.285L26.5428 36.8781C27.0772 36.625 27.3865 36.1656 27.424 35.5703C27.4568 34.9562 27.1709 34.4406 26.6318 34.1406L26.3787 34L25.0662 33.9906C24.0725 33.9812 23.7115 33.9906 23.585 34.0422Z" fill="url(#paint2_linear_14_1617)"/>
</g>
<defs>
<linearGradient id="paint0_linear_14_1617" x1="13" y1="22.5816" x2="36.9921" y2="22.5816" gradientUnits="userSpaceOnUse">
<stop stop-color="#E81212"/>
<stop offset="1" stop-color="#FCCD05"/>
</linearGradient>
<linearGradient id="paint1_linear_14_1617" x1="16.1271" y1="33.7703" x2="21.7849" y2="33.7703" gradientUnits="userSpaceOnUse">
<stop stop-color="#E81212"/>
<stop offset="1" stop-color="#FCCD05"/>
</linearGradient>
<linearGradient id="paint2_linear_14_1617" x1="22.563" y1="35.4937" x2="27.4266" y2="35.4937" gradientUnits="userSpaceOnUse">
<stop stop-color="#E81212"/>
<stop offset="1" stop-color="#FCCD05"/>
</linearGradient>
<clipPath id="clip0_14_1617">
<rect width="50" height="50" rx="25" fill="white"/>
</clipPath>
</defs>
</svg>
