<svg width="50" height="50" viewBox="0 0 50 50" fill="none" xmlns="http://www.w3.org/2000/svg">
<g clip-path="url(#clip0_14_1556)">
<rect width="50" height="50" fill="#FBE0E0"/>
<path d="M17.6641 14.7845C17.1016 15.136 16.6141 15.4313 16.5813 15.4454C16.5484 15.4548 16.0328 15.2532 15.4328 14.9954C14.8328 14.7329 14.2984 14.522 14.2375 14.522C13.9938 14.522 13.9984 14.5876 14.3266 15.886L14.6313 17.1095L13.8156 18.0329C13.1828 18.7454 13 18.9798 13 19.0829C13 19.172 13.0328 19.2235 13.1078 19.2517C13.1641 19.2751 13.7406 19.3313 14.3828 19.3735C15.1516 19.4204 15.5734 19.4673 15.6063 19.5048C15.6344 19.5376 15.9156 20.0017 16.2344 20.5454C16.7969 21.5063 16.8953 21.647 17.0125 21.647C17.1344 21.647 17.2188 21.4829 17.6406 20.4188C17.8797 19.8188 18.0906 19.3079 18.1094 19.2892C18.1281 19.2704 18.6531 19.1392 19.2859 18.9985C19.9141 18.8532 20.4672 18.7267 20.5094 18.7126C20.6031 18.6845 20.6547 18.5532 20.6172 18.4501C20.5984 18.4079 20.1672 18.0235 19.6516 17.597C18.8547 16.9313 18.7188 16.8001 18.7188 16.6876C18.7188 16.6173 18.7609 16.1298 18.8125 15.6001C18.9297 14.3767 18.9297 14.2595 18.8172 14.1938C18.7656 14.1704 18.7141 14.147 18.7047 14.147C18.6953 14.147 18.2266 14.4329 17.6641 14.7845Z" fill="url(#paint0_linear_14_1556)"/>
<path d="M26.4297 14.4001C26.3453 14.461 26.3453 14.4938 26.4016 15.1126C26.4531 15.661 26.4531 15.7688 26.3969 15.8063C26.3594 15.8344 26.1484 16.0126 25.9281 16.2001C25.2953 16.7344 25.3234 16.8188 26.1906 17.0063C26.5188 17.0766 26.7953 17.1423 26.8047 17.1516C26.8141 17.161 26.9172 17.4141 27.0391 17.7094C27.1609 18.0048 27.2828 18.2766 27.3109 18.3094C27.3391 18.3423 27.4141 18.3657 27.4797 18.3563C27.5781 18.3469 27.6531 18.2438 27.9063 17.8173C28.075 17.5266 28.225 17.2782 28.2391 17.2688C28.2531 17.2548 28.5391 17.2173 28.8719 17.1891C29.2047 17.161 29.5047 17.1188 29.5375 17.0907C29.6688 16.9782 29.5938 16.8188 29.1859 16.3688L28.7781 15.9188L28.8906 15.4407C28.9516 15.1829 29.0031 14.8735 29.0078 14.7563C29.0078 14.5641 28.9984 14.5454 28.8813 14.5313C28.8109 14.5219 28.5344 14.611 28.2156 14.7516L27.6719 14.9907L27.1422 14.6626C26.8469 14.4798 26.5891 14.3344 26.5656 14.3344C26.5375 14.3344 26.4766 14.3626 26.4297 14.4001Z" fill="url(#paint1_linear_14_1556)"/>
<path d="M24.3953 18.5297C24.2125 19.125 24.0484 19.8797 23.9359 20.6625C23.7813 21.7406 23.8469 25.5281 24.025 25.875C24.0719 25.9688 24.2734 25.9875 24.325 25.9031C24.3438 25.875 24.4094 25.4578 24.4656 24.9844C24.7281 22.8844 25.2063 20.9766 25.8203 19.5891L26.0313 19.1156L25.8906 18.8391C25.8109 18.6891 25.75 18.5438 25.75 18.511C25.75 18.4828 25.6938 18.45 25.6234 18.4313C25.225 18.3422 25.0938 18.3 24.8641 18.1735C24.7234 18.0985 24.5922 18.0375 24.5781 18.0375C24.5594 18.0375 24.4797 18.2578 24.3953 18.5297Z" fill="url(#paint2_linear_14_1556)"/>
<path d="M33.5828 19.4392C33.1797 20.236 33.1563 20.2782 33.0063 20.3017C32.9219 20.3204 32.5469 20.3767 32.1719 20.4282C31.2625 20.5595 31.2859 20.5501 31.2531 20.6907C31.225 20.7985 31.2953 20.8829 31.8906 21.4829L32.5563 22.1532L32.4109 23.0298C32.3313 23.5126 32.275 23.9485 32.2891 23.9954C32.3453 24.1642 32.5703 24.0985 33.3531 23.6767L34.1172 23.2735L34.9 23.6767C35.3313 23.9017 35.7391 24.0845 35.8047 24.0845C36.0063 24.0845 36.0109 23.9532 35.8469 23.011L35.6969 22.1392L36.3484 21.5063C36.8875 20.986 37.0047 20.8501 37 20.7423C37 20.5642 36.9344 20.5454 35.95 20.4048C35.4859 20.3392 35.1016 20.2782 35.0922 20.2735C35.0875 20.2642 34.9188 19.922 34.7219 19.5095C34.3234 18.6845 34.2672 18.6001 34.1125 18.6001C34.0141 18.6001 33.9438 18.7126 33.5828 19.4392Z" fill="url(#paint3_linear_14_1556)"/>
<path d="M19.9938 20.3815C19.5719 20.4799 19.2203 20.569 19.2109 20.5783C19.1875 20.6018 18.5781 22.1299 18.5781 22.1674C18.5781 22.1862 18.6859 22.3643 18.8219 22.5658C18.9531 22.7721 19.2344 23.2783 19.4453 23.6908C20.4531 25.669 21.3203 28.4393 22.075 32.0487C22.2719 33.0143 22.7031 35.4705 22.7734 36.0565C22.8156 36.3846 22.9328 36.5393 23.0781 36.4596C23.1672 36.4127 23.1719 36.3565 23.1719 35.0393C23.1719 31.0502 22.7359 27.0705 21.925 23.7096C21.55 22.1533 20.9406 20.2221 20.8234 20.208C20.7859 20.208 20.4156 20.283 19.9938 20.3815Z" fill="url(#paint4_linear_14_1556)"/>
<path d="M29.6172 22.4579C28.9562 23.0814 28.4031 23.6954 27.9672 24.2861C26.2609 26.5876 25.1453 29.4329 24.6766 32.6861C24.5125 33.8298 24.4797 34.247 24.4516 35.5736L24.4234 36.872L24.5406 36.947C24.6297 37.0079 24.6906 37.0126 24.7797 36.9798C24.9203 36.9236 24.9016 36.9658 25.1172 36.0376C26.2516 31.1251 28.1781 27.3892 30.6953 25.2564L31.0844 24.9236L30.9391 24.6376C30.7469 24.2673 30.7234 23.8454 30.8547 23.147L30.9484 22.6548L30.7281 22.4298C30.6062 22.3033 30.4328 22.1392 30.3391 22.0689L30.1703 21.9329L29.6172 22.4579Z" fill="url(#paint5_linear_14_1556)"/>
<path d="M15.9484 27.136L15.5031 27.6095L14.8937 27.5157C14.5609 27.4688 14.2609 27.436 14.2281 27.4501C14.1953 27.4595 14.1484 27.511 14.1203 27.5626C14.0781 27.6376 14.125 27.7548 14.3781 28.2142L14.6875 28.7767L14.4437 29.2548C14.1625 29.8126 14.1203 29.9485 14.1812 30.0517C14.2375 30.1548 14.3687 30.1501 15.0062 30.0329L15.5406 29.9345L15.7094 30.0938C15.8031 30.1782 16.0234 30.3845 16.1969 30.5438C16.3656 30.7032 16.525 30.8345 16.5484 30.8345C16.7031 30.8345 16.7547 30.6985 16.8344 30.0845L16.9141 29.4517L17.4109 29.1938C18.0062 28.8845 18.0625 28.8423 18.0625 28.6923C18.0625 28.5938 17.9922 28.547 17.4812 28.3032C17.1156 28.1298 16.8906 27.9985 16.8766 27.9423C16.8625 27.8954 16.8156 27.6376 16.7734 27.3657C16.6891 26.8454 16.6141 26.6626 16.4781 26.6626C16.4359 26.6626 16.1969 26.8735 15.9484 27.136Z" fill="url(#paint6_linear_14_1556)"/>
<path d="M19.0469 29.9393C18.9297 30.0565 18.7187 30.2158 18.5734 30.2908L18.3156 30.4268L18.2594 30.7971L18.1984 31.1674L18.5219 31.5752C19.4594 32.7518 20.2937 34.2002 21.0484 35.9674C21.2125 36.3518 21.3719 36.694 21.4 36.7315C21.4703 36.8159 21.7187 36.783 21.7844 36.6846C21.8453 36.5862 21.7469 35.9721 21.5031 34.9362C21.1797 33.5534 20.7625 32.3627 20.2141 31.2565C19.8672 30.558 19.3516 29.7002 19.2859 29.719C19.2719 29.719 19.1641 29.8221 19.0469 29.9393Z" fill="url(#paint7_linear_14_1556)"/>
<path d="M34.3469 30.694L33.9766 31.2049L33.2969 31.219L32.6172 31.233L32.6031 31.3643C32.5891 31.4674 32.6641 31.6034 32.9453 31.9877L33.3016 32.4846L33.1094 33.0377C32.7906 33.9284 32.8469 33.9893 33.7047 33.708L34.3 33.5065L34.7875 33.8815C35.2937 34.2705 35.4578 34.3315 35.5469 34.1674C35.5703 34.1159 35.5937 33.8018 35.5937 33.4737V32.869L36.0672 32.5455C36.5594 32.208 36.6953 32.0721 36.6437 31.9455C36.6109 31.8565 36.5969 31.8518 35.9219 31.6315L35.3875 31.458L35.2141 30.8909C34.9375 29.9721 34.8766 29.958 34.3469 30.694Z" fill="url(#paint8_linear_14_1556)"/>
<path d="M30.3531 31.7907C28.4078 32.4798 27.0812 33.5579 26.3219 35.0767C26.0781 35.5642 25.8906 36.0938 25.8906 36.3001C25.8906 36.5063 26.0266 36.647 26.2328 36.647C26.4062 36.647 26.4859 36.5767 26.8375 36.1079C27.1562 35.686 27.7937 35.0063 28.1641 34.6923C29.0734 33.9235 29.9078 33.4876 30.9719 33.2251L31.4875 33.0985L31.5484 32.911C31.6094 32.7282 31.6094 32.7235 31.4031 32.4095C31.2859 32.2407 31.1641 32.0063 31.1359 31.8985C31.1078 31.7907 31.075 31.6735 31.0656 31.6407C31.0422 31.5563 30.9859 31.5704 30.3531 31.7907Z" fill="url(#paint9_linear_14_1556)"/>
</g>
<defs>
<linearGradient id="paint0_linear_14_1556" x1="13" y1="17.897" x2="20.6295" y2="17.897" gradientUnits="userSpaceOnUse">
<stop stop-color="#E81212"/>
<stop offset="1" stop-color="#FCCD05"/>
</linearGradient>
<linearGradient id="paint1_linear_14_1556" x1="25.4916" y1="16.3464" x2="29.5966" y2="16.3464" gradientUnits="userSpaceOnUse">
<stop stop-color="#E81212"/>
<stop offset="1" stop-color="#FCCD05"/>
</linearGradient>
<linearGradient id="paint2_linear_14_1556" x1="23.8491" y1="21.9973" x2="26.0313" y2="21.9973" gradientUnits="userSpaceOnUse">
<stop stop-color="#E81212"/>
<stop offset="1" stop-color="#FCCD05"/>
</linearGradient>
<linearGradient id="paint3_linear_14_1556" x1="31.248" y1="21.3423" x2="37.0001" y2="21.3423" gradientUnits="userSpaceOnUse">
<stop stop-color="#E81212"/>
<stop offset="1" stop-color="#FCCD05"/>
</linearGradient>
<linearGradient id="paint4_linear_14_1556" x1="18.5781" y1="28.3441" x2="23.1719" y2="28.3441" gradientUnits="userSpaceOnUse">
<stop stop-color="#E81212"/>
<stop offset="1" stop-color="#FCCD05"/>
</linearGradient>
<linearGradient id="paint5_linear_14_1556" x1="24.4234" y1="29.4665" x2="31.0844" y2="29.4665" gradientUnits="userSpaceOnUse">
<stop stop-color="#E81212"/>
<stop offset="1" stop-color="#FCCD05"/>
</linearGradient>
<linearGradient id="paint6_linear_14_1556" x1="14.1066" y1="28.7485" x2="18.0625" y2="28.7485" gradientUnits="userSpaceOnUse">
<stop stop-color="#E81212"/>
<stop offset="1" stop-color="#FCCD05"/>
</linearGradient>
<linearGradient id="paint7_linear_14_1556" x1="18.1984" y1="33.2492" x2="21.8019" y2="33.2492" gradientUnits="userSpaceOnUse">
<stop stop-color="#E81212"/>
<stop offset="1" stop-color="#FCCD05"/>
</linearGradient>
<linearGradient id="paint8_linear_14_1556" x1="32.6015" y1="32.211" x2="36.654" y2="32.211" gradientUnits="userSpaceOnUse">
<stop stop-color="#E81212"/>
<stop offset="1" stop-color="#FCCD05"/>
</linearGradient>
<linearGradient id="paint9_linear_14_1556" x1="25.8906" y1="34.1199" x2="31.5838" y2="34.1199" gradientUnits="userSpaceOnUse">
<stop stop-color="#E81212"/>
<stop offset="1" stop-color="#FCCD05"/>
</linearGradient>
<clipPath id="clip0_14_1556">
<rect width="50" height="50" rx="25" fill="white"/>
</clipPath>
</defs>
</svg>
