<svg width="50" height="50" viewBox="0 0 50 50" fill="none" xmlns="http://www.w3.org/2000/svg">
<g clip-path="url(#clip0_14_1652)">
<rect width="50" height="50" fill="#FBE0E0"/>
<path d="M24.1849 13.0703C23.0646 13.3516 22.1599 14.2797 21.8833 15.4234C21.7568 15.9531 21.8037 16.75 21.9865 17.2469C22.3333 18.1797 23.0318 18.8641 23.9693 19.1969C24.2365 19.2906 24.363 19.3047 24.9771 19.3047C25.624 19.3047 25.7083 19.2953 26.0224 19.1781C26.2146 19.1078 26.4865 18.9812 26.6318 18.8969C26.974 18.6953 27.513 18.1562 27.7146 17.8141C28.3099 16.8016 28.3099 15.5266 27.7146 14.5141C27.513 14.1719 26.974 13.6328 26.6318 13.4312C26.1255 13.1312 25.7505 13.0328 25.0708 13.0141C24.649 13.0047 24.3771 13.0234 24.1849 13.0703Z" fill="url(#paint0_linear_14_1652)"/>
<path d="M21.3022 20.125C21.11 20.1719 20.7725 20.2984 20.5522 20.4109C20.224 20.575 20.0647 20.6969 19.699 21.0625C19.3147 21.4469 19.2209 21.5687 19.0381 21.9531C18.6819 22.6844 18.6725 22.7547 18.6725 24.8406C18.6725 26.5469 18.6772 26.6734 18.7615 26.8C18.8084 26.8703 18.9115 26.9734 18.9819 27.0203C19.1131 27.1047 19.3147 27.1094 25.0006 27.1094C30.6865 27.1094 30.8881 27.1047 31.0194 27.0203C31.0897 26.9734 31.1928 26.8703 31.2397 26.8C31.324 26.6734 31.3287 26.5469 31.3287 24.8687C31.3287 22.8016 31.31 22.6656 30.9631 21.9531C30.7803 21.5687 30.6865 21.4469 30.3022 21.0625C29.9365 20.6969 29.7772 20.575 29.4537 20.4156C28.6615 20.0219 28.76 20.0312 24.9819 20.0359C21.9303 20.0359 21.6209 20.0453 21.3022 20.125Z" fill="url(#paint1_linear_14_1652)"/>
<path d="M24.7193 27.9391C24.5552 28.0047 24.349 28.2672 23.7349 29.2188L23.0787 30.2266L21.8505 30.5547C20.4818 30.9203 20.374 30.9766 20.2709 31.3656C20.1771 31.7031 20.2474 31.8344 21.1052 32.8984L21.9021 33.8875L21.8365 35.1438C21.7709 36.3625 21.7709 36.4141 21.8599 36.6063C21.9724 36.8688 22.1834 37 22.4834 37C22.6521 37 22.9755 36.8969 23.8146 36.5781C24.424 36.3484 24.9584 36.1563 25.0005 36.1563C25.0427 36.1563 25.5771 36.3484 26.1865 36.5781C27.0255 36.8969 27.349 37 27.5177 37C27.8177 37 28.0287 36.8688 28.1412 36.6063C28.2302 36.4141 28.2302 36.3625 28.1646 35.1438L28.099 33.8875L28.8959 32.8984C29.7537 31.8344 29.824 31.7031 29.7302 31.3656C29.6271 30.9766 29.5193 30.9203 28.1505 30.5547L26.9271 30.2266L26.2662 29.2188C25.9052 28.6609 25.549 28.1453 25.4693 28.0703C25.3521 27.9578 25.2818 27.9344 25.0615 27.9203C24.9115 27.9156 24.7568 27.9203 24.7193 27.9391Z" fill="url(#paint2_linear_14_1652)"/>
<path d="M16.0006 30.6577C15.8787 30.7187 15.7193 30.9155 15.3865 31.4171C15.1334 31.7874 14.9037 32.1062 14.8709 32.1249C14.8334 32.1437 14.51 32.2421 14.149 32.3359C13.4131 32.5327 13.31 32.5796 13.1459 32.753C13.0053 32.903 12.9537 33.353 13.0475 33.5359C13.0803 33.5968 13.3193 33.9062 13.5771 34.2249L14.0412 34.8015L14.0131 35.6546C13.9803 36.4609 13.985 36.5171 14.074 36.6624C14.1303 36.7468 14.2381 36.8546 14.3225 36.9062C14.5803 37.0655 14.8381 37.028 15.5881 36.7421C15.9537 36.6015 16.2912 36.4843 16.3287 36.4843C16.3662 36.4843 16.7037 36.6015 17.0693 36.7421C17.8381 37.0374 18.0865 37.0655 18.349 36.8921C18.6537 36.6905 18.6865 36.5499 18.6396 35.6312L18.6021 34.8202L19.0521 34.2577C19.6615 33.4843 19.6568 33.4984 19.6568 33.2265C19.6568 32.964 19.5443 32.739 19.3521 32.6124C19.2818 32.5702 19.0053 32.4718 18.7287 32.3968C18.4521 32.3218 18.1146 32.2327 17.9787 32.1905L17.735 32.1202L17.2943 31.4499C17.0506 31.0749 16.7975 30.7374 16.7271 30.6905C16.5443 30.5734 16.1975 30.5546 16.0006 30.6577Z" fill="url(#paint3_linear_14_1652)"/>
<path d="M33.3444 30.6577C33.2225 30.7187 33.0678 30.9109 32.749 31.3937C32.5147 31.7499 32.299 32.064 32.2756 32.0874C32.2475 32.1155 31.8959 32.228 31.4928 32.3359C31.0897 32.4484 30.71 32.5749 30.6444 32.6171C30.4569 32.739 30.3444 32.964 30.3444 33.2265C30.3444 33.4984 30.3397 33.4843 30.949 34.2577L31.399 34.8202L31.3615 35.6312C31.3147 36.5499 31.3475 36.6905 31.6522 36.8921C31.9147 37.0655 32.1584 37.0374 32.9365 36.7421C33.3069 36.6015 33.6397 36.4843 33.6772 36.4843C33.7147 36.4843 34.0475 36.6015 34.4131 36.7421C35.1631 37.028 35.4209 37.0655 35.6787 36.9062C35.7631 36.8546 35.8709 36.7468 35.9272 36.6624C36.0162 36.5171 36.0209 36.4609 35.9881 35.6546L35.96 34.8015L36.424 34.2249C36.6819 33.9062 36.9209 33.5968 36.9537 33.5359C37.0475 33.353 36.9959 32.903 36.8553 32.753C36.6912 32.5796 36.574 32.528 35.9459 32.3593C35.6365 32.2796 35.3178 32.1905 35.2334 32.1671C35.1115 32.1296 35.0037 31.9984 34.6381 31.4452C34.3944 31.0749 34.1365 30.7374 34.0709 30.6905C33.8881 30.5734 33.5412 30.5546 33.3444 30.6577Z" fill="url(#paint4_linear_14_1652)"/>
</g>
<defs>
<linearGradient id="paint0_linear_14_1652" x1="21.8121" y1="16.1582" x2="28.1611" y2="16.1582" gradientUnits="userSpaceOnUse">
<stop stop-color="#E81212"/>
<stop offset="1" stop-color="#FCCD05"/>
</linearGradient>
<linearGradient id="paint1_linear_14_1652" x1="18.6725" y1="23.5721" x2="31.3287" y2="23.5721" gradientUnits="userSpaceOnUse">
<stop stop-color="#E81212"/>
<stop offset="1" stop-color="#FCCD05"/>
</linearGradient>
<linearGradient id="paint2_linear_14_1652" x1="20.2393" y1="32.4593" x2="29.7618" y2="32.4593" gradientUnits="userSpaceOnUse">
<stop stop-color="#E81212"/>
<stop offset="1" stop-color="#FCCD05"/>
</linearGradient>
<linearGradient id="paint3_linear_14_1652" x1="13" y1="33.7951" x2="19.6568" y2="33.7951" gradientUnits="userSpaceOnUse">
<stop stop-color="#E81212"/>
<stop offset="1" stop-color="#FCCD05"/>
</linearGradient>
<linearGradient id="paint4_linear_14_1652" x1="30.3444" y1="33.7951" x2="37.0012" y2="33.7951" gradientUnits="userSpaceOnUse">
<stop stop-color="#E81212"/>
<stop offset="1" stop-color="#FCCD05"/>
</linearGradient>
<clipPath id="clip0_14_1652">
<rect width="50" height="50" rx="25" fill="white"/>
</clipPath>
</defs>
</svg>
