<svg width="60" height="60" viewBox="0 0 60 60" fill="none" xmlns="http://www.w3.org/2000/svg">
<circle cx="30" cy="30" r="30" fill="#013FFF"/>
<path d="M20.4086 27.4591L37.4551 20.5971C38.9011 20.0151 39.6241 19.724 40.0796 20.0853C40.5351 20.4467 40.4162 21.2169 40.1786 22.7574L37.8813 37.6469V37.6469C37.6682 39.0284 37.5616 39.7191 37.0637 39.9411C36.5657 40.1632 35.9807 39.7808 34.8106 39.0161L30.6779 36.3152C28.779 35.0742 27.8296 34.4537 27.7299 33.5091C27.6301 32.5645 28.429 31.7595 30.0269 30.1493L35.5482 24.5854C35.7608 24.3711 35.6091 24.0067 35.3072 24.0067C35.24 24.0067 35.1743 24.0267 35.1184 24.0641L24.806 30.9659C24.0481 31.4731 23.6692 31.7267 23.2336 31.7951C22.798 31.8635 22.3595 31.7383 21.4827 31.4879L20.6061 31.2375C18.2796 30.573 17.1164 30.2407 17.0791 29.5275C17.0418 28.8143 18.164 28.3626 20.4086 27.4591Z" fill="white"/>
</svg>
