<svg width="44" height="44" viewBox="0 0 44 44" fill="none" xmlns="http://www.w3.org/2000/svg">
<rect width="44" height="44" fill="#14171F"/>
<path d="M14.677 20.2386L26.7375 15.3283C28.1845 14.7392 28.9079 14.4446 29.3651 14.8051C29.8222 15.1656 29.7044 15.9378 29.4688 17.4823L27.9001 27.7661C27.6879 29.1572 27.5818 29.8528 27.0814 30.0748C26.581 30.2969 25.994 29.9089 24.8201 29.1329L23.0472 27.961C21.1736 26.7225 20.2368 26.1033 20.1376 25.1653C20.0383 24.2274 20.8248 23.4259 22.3977 21.8227L25.9854 18.166C26.1503 17.9979 26.0312 17.7143 25.7957 17.7143C25.7427 17.7143 25.6908 17.7302 25.6468 17.76L17.788 23.0797L17.788 23.0798C17.2155 23.4673 16.9292 23.6611 16.6084 23.7484C16.4684 23.7864 16.3247 23.8092 16.1798 23.8162C15.8478 23.8322 15.5156 23.7363 14.8514 23.5444L14.8514 23.5444L14.8514 23.5444C13.1419 23.0505 12.2871 22.8036 12.1106 22.3339C12.0381 22.141 12.027 21.9303 12.0788 21.7307C12.2049 21.2451 13.029 20.9096 14.677 20.2386L14.677 20.2386Z" fill="white"/>
</svg>
