<svg width="720" height="64" viewBox="0 0 720 64" fill="none" xmlns="http://www.w3.org/2000/svg">
<path d="M18.6923 63.2435V11.1206H0V0.7565H49.3144V11.1206H30.622V63.2435H18.6923Z" fill="#013FFF"/>
<path d="M93.4362 63.2435C92.6003 62.26 92.5244 59.6879 92.5244 57.6454V47.357C92.5244 41.9858 89.409 39.8676 83.938 39.8676H67.8292V63.2435H55.9755V0.7565H84.166C97.7673 0.7565 104.53 6.50591 104.53 19.1395V19.4421C104.53 28.2175 101.415 32.8322 95.4118 34.6478C101.567 36.3877 104.53 41.3806 104.53 47.9622V57.6454C104.53 59.6879 104.606 62.0331 105.442 63.2435H93.4362ZM67.8292 29.8818H83.938C89.6369 29.8818 92.3724 27.6879 92.3724 21.7116V18.383C92.3724 12.9362 89.6369 10.7423 83.6341 10.7423H67.8292V29.8818Z" fill="#013FFF"/>
<path d="M138.614 64C121.365 64 113.918 57.0402 113.918 40.5485V0.7565H125.848V41.8345C125.848 50.5343 129.799 53.7116 138.614 53.7116C147.352 53.7116 151.303 50.5343 151.303 41.8345V0.7565H163.233V40.5485C163.233 57.1915 155.786 64 138.614 64Z" fill="#013FFF"/>
<path d="M199.041 64C181.108 64 171.61 52.2742 171.61 36.4634V27.3853C171.61 11.6501 181.108 0 199.117 0C215.453 0 224.572 9.91016 225.408 23.0733L225.56 26.6288H213.25L213.174 21.6359C212.718 15.5839 208.007 10.2884 199.117 10.2884C188.403 10.2884 183.768 17.4752 183.768 26.0236V37.9764C183.768 46.6761 188.403 53.7116 199.117 53.7116C208.159 53.7116 212.718 48.3404 213.174 42.2884L213.25 37.2955H225.56L225.408 40.8511C224.572 54.0142 215.529 64 199.041 64Z" fill="#013FFF"/>
<path d="M268.339 63.2435L248.051 37.3712H245.771V63.2435H233.917V0.7565H245.771V26.6288H248.051L268.339 0.7565H283.08L257.701 32L283.08 63.2435H268.339Z" fill="#013FFF"/>
<path d="M309.179 64C291.398 64 283.572 56.6619 283.572 42.818V41.0024H295.653V44.331C295.653 51.2908 299.605 53.9385 309.407 53.9385C317.537 53.9385 321.108 51.896 321.108 46.9787V45.617C321.032 40.6241 318.373 38.8842 310.622 37.1442L299.453 34.0426C290.562 31.4704 284.94 26.5532 284.94 17.3239C284.94 6.05201 292.842 0 308.115 0C323.768 0 331.822 6.43026 331.822 18.156V20.3499H319.741V17.7021C319.741 12.1797 316.473 9.98581 308.191 9.98581C300.592 9.98581 297.097 11.8771 297.097 16.1891V17.0969C297.097 21.3333 300.44 23.4515 306.595 24.8132L317.841 27.8392C327.719 30.4113 333.266 34.8747 333.266 45.2388C333.266 58.3262 326.047 64 309.179 64Z" fill="#013FFF"/>
<path d="M384.719 64C366.938 64 359.112 56.6619 359.112 42.818V41.0024H371.193V44.331C371.193 51.2908 375.145 53.9385 384.947 53.9385C393.077 53.9385 396.648 51.896 396.648 46.9787V45.617C396.572 40.6241 393.913 38.8842 386.162 37.1442L374.993 34.0426C366.102 31.4704 360.479 26.5532 360.479 17.3239C360.479 6.05201 368.382 0 383.655 0C399.308 0 407.362 6.43026 407.362 18.156V20.3499H395.281V17.7021C395.281 12.1797 392.013 9.98581 383.731 9.98581C376.132 9.98581 372.637 11.8771 372.637 16.1891V17.0969C372.637 21.3333 375.98 23.4515 382.135 24.8132L393.381 27.8392C403.259 30.4113 408.806 34.8747 408.806 45.2388C408.806 58.3262 401.587 64 384.719 64Z" fill="#013FFF"/>
<path d="M417.276 63.2435V0.7565H458.688V11.1206H429.13V26.8558H456.56V37.1442H429.13V52.8794H458.688V63.2435H417.276Z" fill="#013FFF"/>
<path d="M505.344 63.2435C504.508 62.26 504.432 59.6879 504.432 57.6454V47.357C504.432 41.9858 501.317 39.8676 495.846 39.8676H479.737V63.2435H467.883V0.7565H496.074C509.675 0.7565 516.438 6.50591 516.438 19.1395V19.4421C516.438 28.2175 513.322 32.8322 507.319 34.6478C513.474 36.3877 516.438 41.3806 516.438 47.9622V57.6454C516.438 59.6879 516.514 62.0331 517.35 63.2435H505.344ZM479.737 29.8818H495.846C501.545 29.8818 504.28 27.6879 504.28 21.7116V18.383C504.28 12.9362 501.545 10.7423 495.542 10.7423H479.737V29.8818Z" fill="#013FFF"/>
<path d="M539.903 63.2435L520.223 0.7565H532.76L547.425 50.9882L548.033 52.6525L548.641 50.9882L563.23 0.7565H575.692L556.088 63.2435H539.903Z" fill="#013FFF"/>
<path d="M577.844 63.2435V0.7565H591.066V63.2435H577.844Z" fill="#013FFF"/>
<path d="M623.712 64C605.779 64 596.281 52.2742 596.281 36.4634V27.3853C596.281 11.6501 605.779 0 623.788 0C640.124 0 649.243 9.91016 650.078 23.0733L650.23 26.6288H637.921L637.845 21.6359C637.389 15.5839 632.678 10.2884 623.788 10.2884C613.074 10.2884 608.439 17.4752 608.439 26.0236V37.9764C608.439 46.6761 613.074 53.7116 623.788 53.7116C632.83 53.7116 637.389 48.3404 637.845 42.2884L637.921 37.2955H650.23L650.078 40.8511C649.243 54.0142 640.2 64 623.712 64Z" fill="#013FFF"/>
<path d="M658.588 63.2435V0.7565H720V11.1206H670.442V26.8558H717.872V37.1442H670.442V52.8794H720V63.2435H658.588Z" fill="#013FFF"/>
</svg>
