<svg width="60" height="60" viewBox="0 0 60 60" fill="none" xmlns="http://www.w3.org/2000/svg">
<circle cx="30" cy="30" r="30" fill="#013FFF"/>
<g clip-path="url(#clip0_509_36478)">
<path d="M25.1769 41.5656C34.9889 41.5656 40.3542 33.4372 40.3542 26.3884C40.3542 26.1571 40.349 25.9272 40.3388 25.6986C41.3829 24.9433 42.2841 24.0079 43 22.9363C42.0266 23.3675 40.9941 23.6504 39.9369 23.7757C41.0501 23.1086 41.8834 22.0601 42.2819 20.825C41.2346 21.4456 40.089 21.8832 38.8946 22.1188C38.3955 21.5863 37.7924 21.1619 37.1227 20.8721C36.4529 20.5822 35.7308 20.433 35.001 20.4336C33.5855 20.4336 32.2281 20.9959 31.2272 21.9968C30.2263 22.9976 29.664 24.3551 29.664 25.7706C29.6635 26.1789 29.7099 26.5858 29.8023 26.9835C27.6809 26.8778 25.6054 26.3269 23.7108 25.3668C21.8161 24.4066 20.1446 23.0587 18.8049 21.4104C18.3308 22.2245 18.0816 23.1499 18.0828 24.0919C18.0819 24.9702 18.2981 25.8352 18.7122 26.6098C19.1262 27.3845 19.7253 28.0448 20.4561 28.5321C19.6089 28.5059 18.7803 28.2768 18.0399 27.8641C18.0399 27.8868 18.0399 27.9086 18.0399 27.9321C18.0399 29.1646 18.4666 30.3591 19.2473 31.3128C20.0281 32.2665 21.115 32.9206 22.3232 33.1639C21.8648 33.2883 21.392 33.3514 20.917 33.3515C20.5805 33.3512 20.2448 33.319 19.9143 33.2553C20.2553 34.3149 20.9191 35.2413 21.8127 35.9049C22.7063 36.5686 23.785 36.9362 24.8979 36.9564C23.0087 38.4404 20.6752 39.2459 18.2728 39.2432C17.8475 39.2437 17.4225 39.2191 17 39.1696C19.4392 40.7366 22.2778 41.5684 25.1769 41.5656Z" fill="white"/>
</g>
<defs>
<clipPath id="clip0_509_36478">
<rect width="26" height="21.1304" fill="white" transform="translate(17 20.4355)"/>
</clipPath>
</defs>
</svg>
