<svg width="60" height="60" viewBox="0 0 60 60" fill="none" xmlns="http://www.w3.org/2000/svg">
<circle cx="30" cy="30" r="30" fill="#013FFF"/>
<g clip-path="url(#clip0_509_36485)">
<path d="M42.5298 23.8144C42.3816 23.2634 42.0913 22.7611 41.6879 22.3577C41.2845 21.9544 40.7822 21.664 40.2313 21.5159C38.2035 20.9727 30.0766 20.9727 30.0766 20.9727C30.0766 20.9727 21.9464 20.9727 19.9219 21.5159C19.3697 21.6629 18.8658 21.9527 18.4611 22.3562C18.0564 22.7597 17.7649 23.2626 17.6161 23.8144C17.2415 25.879 17.0596 27.974 17.0729 30.0724C17.0596 32.1707 17.2415 34.2657 17.6161 36.3304C17.7643 36.8814 18.0546 37.3838 18.458 37.7874C18.8614 38.1909 19.3637 38.4814 19.9146 38.6297C21.9424 39.1729 30.0693 39.1729 30.0693 39.1729C30.0693 39.1729 38.2003 39.1729 40.224 38.6297C40.7763 38.4825 41.2801 38.1925 41.6849 37.7889C42.0896 37.3853 42.381 36.8823 42.5298 36.3304C42.9044 34.2657 43.0863 32.1707 43.0729 30.0724C43.0863 27.974 42.9044 25.879 42.5298 23.8144ZM27.4726 33.969V26.1725L34.2287 30.0724L27.4726 33.969Z" fill="white"/>
</g>
<defs>
<clipPath id="clip0_509_36485">
<rect width="26" height="18.2002" fill="white" transform="translate(17.0723 20.9727)"/>
</clipPath>
</defs>
</svg>
